<?xml version="1.0" encoding="utf-8"?>
<!-- Generator: Adobe Illustrator 23.1.1, SVG Export Plug-In . SVG Version: 6.00 Build 0)  -->
<svg version="1.1" id="Layer_1" xmlns="http://www.w3.org/2000/svg" xmlns:xlink="http://www.w3.org/1999/xlink" x="0px" y="0px"
	 viewBox="0 0 1024 186.84" style="enable-background:new 0 0 1024 186.84;" xml:space="preserve">
<style type="text/css">
	.st0{fill:#FFFFFF;}
</style>
<g>
	<path class="st0" d="M25.5,75.35c2.25-2.25,2.97-5.43,2.19-8.29l8.12-8.12c2.72,1.58,5.78,2.31,8.83,2.19l3.61,13.09
		c-3.33,3.33-3.33,8.73,0,12.06s8.73,3.33,12.07,0c3.33-3.33,3.33-8.73,0-12.07c-1.13-1.13-2.5-1.86-3.94-2.23L52.7,58.66
		c1.03-0.65,2.02-1.4,2.91-2.3c1.13-1.13,2.05-2.39,2.79-3.73l13.58,3.75c0.36,1.44,1.1,2.81,2.23,3.94c3.33,3.33,8.73,3.33,12.07,0
		c3.33-3.33,3.33-8.73,0-12.07c-3.33-3.33-8.73-3.33-12.06,0L60.4,44.43c-0.04-1.83-0.38-3.65-1.03-5.39
		c9.92-6.1,21.36-9.37,33.3-9.37c17.03,0,33.04,6.63,45.08,18.67c10.18,10.18,16.51,23.27,18.21,37.39
		c-0.18,0.15-0.35,0.3-0.51,0.47c-3.33,3.33-3.33,8.73,0,12.07c3.33,3.33,8.73,3.33,12.07,0c3.33-3.33,3.33-8.73,0-12.07
		c-0.44-0.44-0.93-0.82-1.43-1.15c-1.87-16.57-9.24-31.94-21.17-43.86c-13.95-13.95-32.5-21.64-52.24-21.64
		c-14.26,0-27.89,4.03-39.63,11.52c-2.64-1.74-5.66-2.63-8.7-2.69l-3.81-13.82c3.33-3.33,3.33-8.73,0-12.06s-8.73-3.33-12.07,0
		s-3.33,8.73,0,12.07c1.13,1.13,2.5,1.86,3.94,2.23l3.75,13.58c-1.34,0.73-2.6,1.65-3.73,2.79c-0.9,0.9-1.66,1.88-2.3,2.91
		L16.79,32.4c-0.36-1.44-1.1-2.81-2.23-3.94c-3.33-3.33-8.73-3.33-12.07,0c-3.33,3.33-3.33,8.73,0,12.07
		c3.33,3.33,8.73,3.33,12.06,0l13.09,3.61c-0.11,3.05,0.62,6.11,2.19,8.83l-8.12,8.12c-2.86-0.78-6.04-0.06-8.29,2.19
		c-3.33,3.33-3.33,8.73,0,12.07C16.76,78.68,22.16,78.68,25.5,75.35z"/>
	<path class="st0" d="M182.86,146.31c-3.33-3.33-8.73-3.33-12.06,0l-13.09-3.61c0.11-3.05-0.62-6.11-2.19-8.83l8.12-8.12
		c2.86,0.78,6.05,0.06,8.29-2.19c3.33-3.33,3.33-8.73,0-12.07c-3.33-3.33-8.73-3.33-12.07,0c-2.25,2.25-2.97,5.43-2.19,8.29
		l-8.12,8.12c-2.72-1.58-5.78-2.31-8.83-2.19l-3.61-13.09c3.33-3.33,3.33-8.73,0-12.06s-8.73-3.33-12.07,0
		c-3.33,3.33-3.33,8.73,0,12.07c1.13,1.13,2.5,1.86,3.94,2.23l3.68,13.32c-1.03,0.65-2.02,1.4-2.91,2.3
		c-1.13,1.13-2.05,2.39-2.79,3.73l-13.58-3.75c-0.36-1.44-1.1-2.81-2.23-3.94c-3.33-3.33-8.73-3.33-12.07,0
		c-3.33,3.33-3.33,8.73,0,12.07c3.33,3.33,8.73,3.33,12.06,0l13.82,3.81c0.04,1.82,0.38,3.64,1.02,5.37
		c-24.55,15.03-57.14,11.95-78.37-9.28c-9.73-9.73-15.97-22.21-17.97-35.67c0.11-0.1,0.23-0.2,0.33-0.3c3.33-3.33,3.33-8.73,0-12.07
		s-8.73-3.33-12.07,0c-3.33,3.33-3.33,8.73,0,12.07c0.5,0.5,1.05,0.92,1.64,1.27c2.23,15.8,9.51,30.46,20.91,41.86
		c14.4,14.4,33.32,21.6,52.24,21.6c13.79,0,27.57-3.85,39.61-11.5c2.64,1.75,5.67,2.64,8.72,2.7l3.81,13.82
		c-3.33,3.33-3.33,8.73,0,12.06s8.73,3.33,12.07,0c3.33-3.33,3.33-8.73,0-12.07c-1.13-1.13-2.5-1.86-3.94-2.23l-3.75-13.58
		c1.34-0.73,2.6-1.65,3.73-2.79c0.9-0.9,1.66-1.88,2.3-2.91l13.32,3.68c0.36,1.44,1.1,2.81,2.23,3.94c3.33,3.33,8.73,3.33,12.07,0
		C186.19,155.05,186.19,149.64,182.86,146.31z"/>
</g>
<g>
	<path class="st0" d="M286.31,84.47v41.18c0,2.43-0.71,4.3-2.14,5.62c-1.42,1.32-3.4,1.98-5.94,1.98c-2.43,0-4.36-0.69-5.78-2.06
		c-1.43-1.37-2.14-3.22-2.14-5.54V85.27c0-6.55-1.29-11.35-3.88-14.41s-6.63-4.59-12.12-4.59c-6.44,0-11.62,2.01-15.52,6.02
		c-3.91,4.01-5.86,9.4-5.86,16.15v37.22c0,2.32-0.71,4.17-2.14,5.54s-3.35,2.06-5.78,2.06s-4.38-0.69-5.86-2.06
		s-2.22-3.22-2.22-5.54V61.19c0-2.22,0.76-4.04,2.3-5.46c1.53-1.43,3.46-2.14,5.78-2.14c2.32,0,4.17,0.69,5.54,2.06
		c1.37,1.37,2.06,3.17,2.06,5.38v6.49c2.53-4.64,6.07-8.18,10.61-10.61s9.66-3.64,15.36-3.64
		C277.07,53.27,286.31,63.67,286.31,84.47z"/>
	<path class="st0" d="M368.34,114.72c0.95,1.16,1.43,2.64,1.43,4.43c0,3.06-1.9,5.65-5.7,7.76c-3.7,2.11-7.74,3.75-12.12,4.91
		s-8.58,1.74-12.59,1.74c-12.25,0-21.91-3.56-28.98-10.69c-7.07-7.13-10.61-16.87-10.61-29.22c0-7.92,1.56-14.94,4.67-21.06
		c3.11-6.12,7.5-10.87,13.14-14.25c5.65-3.38,12.06-5.07,19.24-5.07c10.35,0,18.53,3.33,24.55,9.98s9.03,15.63,9.03,26.92
		c0,4.22-1.9,6.33-5.7,6.33h-48.94c1.05,16.37,8.92,24.55,23.6,24.55c3.91,0,7.29-0.53,10.14-1.58s5.86-2.43,9.03-4.12
		c0.32-0.21,1.19-0.66,2.61-1.35c1.43-0.69,2.61-1.03,3.56-1.03C366.18,112.98,367.39,113.56,368.34,114.72z M322.42,70.85
		c-3.7,3.91-5.91,9.4-6.65,16.47h40.86c-0.32-7.18-2.14-12.69-5.46-16.55c-3.33-3.85-8-5.78-14.02-5.78
		C331.02,64.99,326.11,66.95,322.42,70.85z"/>
	<path class="st0" d="M449.67,55.65c1.43,1.37,2.14,3.27,2.14,5.7v64.46c0,2.22-0.74,4.01-2.22,5.38c-1.48,1.37-3.43,2.06-5.86,2.06
		c-2.22,0-4.01-0.66-5.38-1.98c-1.37-1.32-2.06-3.09-2.06-5.31v-6.02c-2.43,4.43-5.78,7.81-10.06,10.14
		c-4.28,2.32-9.05,3.48-14.33,3.48c-18.79,0-28.19-10.35-28.19-31.04V61.35c0-2.43,0.71-4.33,2.14-5.7
		c1.43-1.37,3.41-2.06,5.94-2.06c2.43,0,4.35,0.69,5.78,2.06c1.43,1.37,2.14,3.27,2.14,5.7v41.02c0,6.23,1.27,10.82,3.8,13.78
		s6.44,4.43,11.72,4.43c6.23,0,11.22-2,14.97-6.02c3.75-4.01,5.62-9.34,5.62-16V61.35c0-2.32,0.74-4.2,2.22-5.62
		c1.48-1.43,3.43-2.14,5.86-2.14C446.31,53.59,448.24,54.28,449.67,55.65z"/>
	<path class="st0" d="M518.32,60.08c0,2.32-0.58,4.07-1.74,5.23s-3.17,1.85-6.02,2.06l-4.75,0.48c-6.65,0.63-11.59,2.96-14.81,6.97
		s-4.83,8.87-4.83,14.57v36.27c0,2.53-0.74,4.43-2.22,5.7s-3.38,1.9-5.7,1.9s-4.25-0.63-5.78-1.9c-1.53-1.27-2.3-3.17-2.3-5.7V61.19
		c0-2.43,0.76-4.3,2.3-5.62c1.53-1.32,3.46-1.98,5.78-1.98c2.11,0,3.88,0.66,5.31,1.98s2.14,3.14,2.14,5.46v7.6
		c2.11-4.64,5.17-8.18,9.19-10.61c4.01-2.43,8.55-3.85,13.62-4.28l2.22-0.16C515.79,53.27,518.32,55.44,518.32,60.08z"/>
	<path class="st0" d="M536.14,128.66c-5.76-3.27-10.19-7.94-13.3-14.02c-3.12-6.07-4.67-13.12-4.67-21.14
		c0-8.13,1.56-15.23,4.67-21.3c3.11-6.07,7.55-10.74,13.3-14.02c5.75-3.27,12.43-4.91,20.03-4.91s14.28,1.64,20.03,4.91
		s10.19,7.95,13.3,14.02s4.67,13.17,4.67,21.3c0,8.03-1.56,15.07-4.67,21.14c-3.12,6.07-7.55,10.75-13.3,14.02
		c-5.76,3.27-12.43,4.91-20.03,4.91S541.89,131.93,536.14,128.66z M572.4,113.93c3.75-4.64,5.62-11.46,5.62-20.43
		c0-8.87-1.9-15.65-5.7-20.35s-9.19-7.05-16.15-7.05s-12.35,2.35-16.15,7.05c-3.8,4.7-5.7,11.48-5.7,20.35
		c0,8.98,1.87,15.79,5.62,20.43c3.75,4.65,9.16,6.97,16.23,6.97C563.24,120.9,568.66,118.58,572.4,113.93z"/>
	<path class="st0" d="M722.62,84.47v41.18c0,2.43-0.74,4.3-2.22,5.62s-3.43,1.98-5.86,1.98c-2.32,0-4.22-0.66-5.7-1.98
		c-1.48-1.32-2.22-3.19-2.22-5.62V84.63c0-6.44-1.16-11.11-3.48-14.02c-2.32-2.9-5.97-4.35-10.93-4.35c-5.81,0-10.4,1.98-13.78,5.94
		s-5.07,9.37-5.07,16.23v37.22c0,2.43-0.74,4.3-2.22,5.62c-1.48,1.32-3.43,1.98-5.86,1.98c-2.32,0-4.22-0.66-5.7-1.98
		c-1.48-1.32-2.22-3.19-2.22-5.62V84.63c0-6.44-1.16-11.11-3.48-14.02c-2.32-2.9-5.97-4.35-10.93-4.35
		c-5.81,0-10.43,1.98-13.86,5.94s-5.15,9.37-5.15,16.23v37.22c0,2.43-0.74,4.3-2.22,5.62c-1.48,1.32-3.38,1.98-5.7,1.98
		s-4.25-0.66-5.78-1.98c-1.53-1.32-2.3-3.19-2.3-5.62V61.19c0-2.32,0.79-4.17,2.38-5.54c1.58-1.37,3.48-2.06,5.7-2.06
		c2.22,0,4.04,0.66,5.46,1.98c1.43,1.32,2.14,3.14,2.14,5.46v5.86c2.32-4.43,5.54-7.81,9.66-10.14c4.12-2.32,8.87-3.48,14.25-3.48
		c5.91,0,10.79,1.22,14.65,3.64c3.85,2.43,6.73,6.18,8.63,11.24c2.32-4.54,5.75-8.16,10.29-10.85s9.71-4.04,15.52-4.04
		C713.96,53.27,722.62,63.67,722.62,84.47z"/>
	<path class="st0" d="M809.65,55.73c1.43,1.43,2.14,3.3,2.14,5.62v64.14c0,2.43-0.71,4.33-2.14,5.7c-1.43,1.37-3.35,2.06-5.78,2.06
		c-2.43,0-4.36-0.69-5.78-2.06c-1.43-1.37-2.14-3.27-2.14-5.7v-6.34c-2.32,4.65-5.7,8.21-10.14,10.69
		c-4.43,2.48-9.56,3.72-15.36,3.72c-6.76,0-12.72-1.66-17.9-4.99c-5.17-3.33-9.21-7.97-12.12-13.94
		c-2.91-5.96-4.36-12.91-4.36-20.83c0-8.13,1.45-15.26,4.36-21.38c2.9-6.12,6.94-10.85,12.12-14.17c5.17-3.33,11.14-4.99,17.9-4.99
		c5.81,0,10.93,1.27,15.36,3.8s7.81,6.12,10.14,10.77v-6.65c0-2.32,0.71-4.17,2.14-5.54c1.43-1.37,3.35-2.06,5.78-2.06
		C806.29,53.59,808.22,54.3,809.65,55.73z M790.33,113.77c3.75-4.75,5.62-11.51,5.62-20.27s-1.88-15.52-5.62-20.27
		c-3.75-4.75-9.11-7.13-16.07-7.13c-6.97,0-12.38,2.4-16.23,7.21c-3.86,4.81-5.78,11.64-5.78,20.51c0,8.55,1.93,15.2,5.78,19.96
		c3.85,4.75,9.27,7.13,16.23,7.13C781.22,120.9,786.58,118.52,790.33,113.77z"/>
	<path class="st0" d="M872.99,122.88c1,1,1.5,2.4,1.5,4.2c0,2.11-0.82,3.72-2.45,4.83c-1.64,1.11-4.04,1.56-7.21,1.35l-4.28-0.32
		c-8.55-0.63-14.94-3.25-19.16-7.84s-6.34-11.38-6.34-20.35V67.53h-9.5c-4.65,0-6.97-2.06-6.97-6.18c0-1.9,0.61-3.41,1.82-4.51
		c1.21-1.11,2.93-1.66,5.15-1.66h9.5V38.86c0-2.43,0.71-4.33,2.14-5.7c1.43-1.37,3.35-2.06,5.78-2.06c2.43,0,4.38,0.69,5.86,2.06
		s2.22,3.27,2.22,5.7v16.31h15.68c2.22,0,3.93,0.55,5.15,1.66c1.21,1.11,1.82,2.61,1.82,4.51c0,2.01-0.61,3.54-1.82,4.59
		c-1.22,1.06-2.93,1.58-5.15,1.58h-15.68v38.33c0,4.96,1.03,8.61,3.09,10.93s5.2,3.64,9.42,3.96l4.43,0.32
		C870.33,121.27,871.99,121.88,872.99,122.88z"/>
	<path class="st0" d="M895.48,128.66c-5.65-3.27-10.03-7.92-13.14-13.94c-3.12-6.02-4.67-12.99-4.67-20.91
		c0-8.02,1.61-15.1,4.83-21.22c3.22-6.12,7.73-10.87,13.54-14.25s12.46-5.07,19.96-5.07c4.01,0,8.05,0.58,12.12,1.74
		c4.06,1.16,7.68,2.75,10.85,4.75c3.38,2.32,5.07,5.02,5.07,8.08c0,1.8-0.48,3.3-1.42,4.51c-0.95,1.22-2.17,1.82-3.64,1.82
		c-0.95,0-1.9-0.24-2.85-0.71c-0.95-0.48-2.17-1.19-3.64-2.14c-2.64-1.69-5.09-2.98-7.36-3.88c-2.27-0.9-4.99-1.35-8.16-1.35
		c-7.18,0-12.75,2.43-16.71,7.29s-5.94,11.62-5.94,20.27c0,8.66,1.95,15.34,5.86,20.03c3.9,4.7,9.45,7.05,16.63,7.05
		c3.17,0,5.96-0.48,8.39-1.43s4.91-2.22,7.44-3.8c1.16-0.74,2.32-1.37,3.48-1.9s2.22-0.79,3.17-0.79c1.48,0,2.69,0.61,3.64,1.82
		c0.95,1.22,1.42,2.72,1.42,4.51c0,1.48-0.4,2.83-1.19,4.04c-0.79,1.22-2.14,2.45-4.04,3.72c-3.17,2.11-6.87,3.75-11.09,4.91
		c-4.22,1.16-8.5,1.74-12.83,1.74C907.7,133.57,901.13,131.93,895.48,128.66z"/>
	<path class="st0" d="M1024,84.47v41.18c0,2.32-0.74,4.17-2.22,5.54s-3.43,2.06-5.86,2.06s-4.36-0.69-5.78-2.06
		c-1.42-1.37-2.14-3.22-2.14-5.54V84.63c0-6.33-1.29-10.98-3.88-13.94s-6.63-4.43-12.12-4.43c-6.44,0-11.62,2.01-15.52,6.02
		c-3.91,4.01-5.86,9.4-5.86,16.15v37.22c0,2.32-0.71,4.17-2.14,5.54c-1.42,1.37-3.35,2.06-5.78,2.06c-2.43,0-4.38-0.69-5.86-2.06
		s-2.22-3.22-2.22-5.54V27.62c0-2.32,0.76-4.17,2.3-5.54c1.53-1.37,3.51-2.06,5.94-2.06c2.32,0,4.2,0.66,5.62,1.98
		c1.43,1.32,2.14,3.09,2.14,5.31V66.9c2.64-4.43,6.18-7.81,10.61-10.14c4.43-2.32,9.5-3.48,15.2-3.48
		C1014.81,53.27,1024,63.67,1024,84.47z"/>
</g>
</svg>
