<svg id="Layer_1" data-name="Layer 1" xmlns="http://www.w3.org/2000/svg" viewBox="0 0 64 64"><defs><style>.cls-1{fill:#fff;}</style></defs><title>Logo_mark_Wh</title><path class="cls-1" d="M9,25.81A2.91,2.91,0,0,0,9.74,23l2.78-2.78a5.59,5.59,0,0,0,3,.75l1.24,4.48a2.92,2.92,0,1,0,4.13,0,2.82,2.82,0,0,0-1.35-.76L18.3,20.1a5.69,5.69,0,0,0,1-.79A5.52,5.52,0,0,0,20.25,18l4.65,1.28a3,3,0,0,0,.76,1.35,2.92,2.92,0,1,0,0-4.13l-4.73-1.31a5.62,5.62,0,0,0-.35-1.85,21.85,21.85,0,0,1,33.09,16l-.18.16a2.92,2.92,0,1,0,4.13,0,3,3,0,0,0-.49-.39,25.29,25.29,0,0,0-38.7-18.49,5.56,5.56,0,0,0-3-.92L14.14,5A2.92,2.92,0,1,0,10,5a2.82,2.82,0,0,0,1.35.76l1.28,4.65a5.82,5.82,0,0,0-1.28.95,5.35,5.35,0,0,0-.79,1L6,11.1a3,3,0,0,0-.76-1.35,2.92,2.92,0,1,0,0,4.13l4.48,1.24a5.59,5.59,0,0,0,.75,3L7.7,20.92A2.92,2.92,0,1,0,9,25.81Z"/><path class="cls-1" d="M62.89,50.12a2.92,2.92,0,0,0-4.13,0l-4.48-1.24a5.59,5.59,0,0,0-.75-3l2.78-2.78a2.92,2.92,0,1,0-2-2l-2.78,2.78a5.59,5.59,0,0,0-3-.75l-1.24-4.48a2.92,2.92,0,1,0-4.13,0,2.82,2.82,0,0,0,1.35.76l1.26,4.56a5.69,5.69,0,0,0-1,.79,5.52,5.52,0,0,0-1,1.28L39.11,44.7a3,3,0,0,0-.76-1.35,2.92,2.92,0,1,0,0,4.13l4.73,1.31a5.56,5.56,0,0,0,.35,1.84,21.83,21.83,0,0,1-33-15.4l.11-.1a2.92,2.92,0,1,0-4.13,0,2.88,2.88,0,0,0,.56.43,25.31,25.31,0,0,0,38.62,17.8,5.66,5.66,0,0,0,3,.93L49.89,59A2.92,2.92,0,1,0,54,59a2.82,2.82,0,0,0-1.35-.76l-1.28-4.65a5.82,5.82,0,0,0,1.28-1,5.35,5.35,0,0,0,.79-1L58,52.92a3,3,0,0,0,.76,1.35,2.92,2.92,0,0,0,4.13,0A3,3,0,0,0,62.89,50.12Z"/></svg>