<?xml version="1.0" encoding="utf-8"?>
<!-- Generator: Adobe Illustrator 23.1.1, SVG Export Plug-In . SVG Version: 6.00 Build 0)  -->
<svg version="1.1" id="Layer_1" xmlns="http://www.w3.org/2000/svg" xmlns:xlink="http://www.w3.org/1999/xlink" x="0px" y="0px"
	 viewBox="0 0 64 64" style="enable-background:new 0 0 64 64;" xml:space="preserve">
<style type="text/css">
	.st0{fill:#231F20;}
</style>
<g>
	<path class="st0" d="M8.99,25.81c0.77-0.77,1.02-1.86,0.75-2.84l2.78-2.78c0.93,0.54,1.98,0.79,3.02,0.75l1.24,4.48
		c-1.14,1.14-1.14,2.99,0,4.13c1.14,1.14,2.99,1.14,4.13,0c1.14-1.14,1.14-2.99,0-4.13c-0.39-0.39-0.85-0.64-1.35-0.76l-1.26-4.56
		c0.35-0.22,0.69-0.48,1-0.79c0.39-0.39,0.7-0.82,0.95-1.28l4.65,1.28c0.12,0.49,0.38,0.96,0.76,1.35c1.14,1.14,2.99,1.14,4.13,0
		c1.14-1.14,1.14-2.99,0-4.13c-1.14-1.14-2.99-1.14-4.13,0l-4.73-1.31c-0.01-0.63-0.13-1.25-0.35-1.85
		c3.4-2.09,7.32-3.21,11.41-3.21c5.83,0,11.32,2.27,15.44,6.4c3.49,3.49,5.66,7.97,6.24,12.81c-0.06,0.05-0.12,0.1-0.18,0.16
		c-1.14,1.14-1.14,2.99,0,4.13c1.14,1.14,2.99,1.14,4.13,0c1.14-1.14,1.14-2.99,0-4.13c-0.15-0.15-0.32-0.28-0.49-0.39
		c-0.64-5.67-3.16-10.94-7.25-15.02C45.11,9.33,38.76,6.7,32,6.7c-4.88,0-9.55,1.38-13.57,3.95c-0.9-0.6-1.94-0.9-2.98-0.92
		l-1.31-4.73c1.14-1.14,1.14-2.99,0-4.13c-1.14-1.14-2.99-1.14-4.13,0s-1.14,2.99,0,4.13c0.39,0.39,0.85,0.64,1.35,0.76l1.28,4.65
		c-0.46,0.25-0.89,0.57-1.28,0.95c-0.31,0.31-0.57,0.64-0.79,1L6.01,11.1c-0.12-0.49-0.38-0.96-0.76-1.35
		c-1.14-1.14-2.99-1.14-4.13,0c-1.14,1.14-1.14,2.99,0,4.13c1.14,1.14,2.99,1.14,4.13,0l4.48,1.24c-0.04,1.04,0.21,2.09,0.75,3.02
		l-2.78,2.78c-0.98-0.27-2.07-0.02-2.84,0.75c-1.14,1.14-1.14,2.99,0,4.13C6,26.95,7.85,26.95,8.99,25.81z"/>
	<path class="st0" d="M62.89,50.12c-1.14-1.14-2.99-1.14-4.13,0l-4.48-1.24c0.04-1.04-0.21-2.09-0.75-3.02l2.78-2.78
		c0.98,0.27,2.07,0.02,2.84-0.75c1.14-1.14,1.14-2.99,0-4.13c-1.14-1.14-2.99-1.14-4.13,0c-0.77,0.77-1.02,1.86-0.75,2.84
		l-2.78,2.78c-0.93-0.54-1.98-0.79-3.02-0.75l-1.24-4.48c1.14-1.14,1.14-2.99,0-4.13c-1.14-1.14-2.99-1.14-4.13,0
		c-1.14,1.14-1.14,2.99,0,4.13c0.39,0.39,0.85,0.64,1.35,0.76l1.26,4.56c-0.35,0.22-0.69,0.48-1,0.79c-0.39,0.39-0.7,0.82-0.95,1.28
		l-4.65-1.28c-0.12-0.49-0.38-0.96-0.76-1.35c-1.14-1.14-2.99-1.14-4.13,0c-1.14,1.14-1.14,2.99,0,4.13c1.14,1.14,2.99,1.14,4.13,0
		l4.73,1.31c0.01,0.62,0.13,1.25,0.35,1.84c-8.41,5.15-19.57,4.09-26.85-3.18c-3.33-3.33-5.47-7.61-6.15-12.22
		c0.04-0.03,0.08-0.07,0.11-0.1c1.14-1.14,1.14-2.99,0-4.13c-1.14-1.14-2.99-1.14-4.13,0c-1.14,1.14-1.14,2.99,0,4.13
		c0.17,0.17,0.36,0.31,0.56,0.43c0.76,5.41,3.26,10.43,7.16,14.34c4.93,4.93,11.41,7.4,17.89,7.4c4.72,0,9.44-1.32,13.57-3.94
		c0.9,0.6,1.94,0.9,2.99,0.93l1.31,4.73c-1.14,1.14-1.14,2.99,0,4.13c1.14,1.14,2.99,1.14,4.13,0c1.14-1.14,1.14-2.99,0-4.13
		c-0.39-0.39-0.85-0.64-1.35-0.76l-1.28-4.65c0.46-0.25,0.89-0.57,1.28-0.95c0.31-0.31,0.57-0.64,0.79-1l4.56,1.26
		c0.12,0.49,0.38,0.96,0.76,1.35c1.14,1.14,2.99,1.14,4.13,0C64.03,53.11,64.03,51.26,62.89,50.12z"/>
</g>
</svg>
