<?xml version="1.0" encoding="utf-8"?>
<!-- Generator: Adobe Illustrator 16.0.0, SVG Export Plug-In . SVG Version: 6.00 Build 0)  -->
<!DOCTYPE svg PUBLIC "-//W3C//DTD SVG 1.1//EN" "http://www.w3.org/Graphics/SVG/1.1/DTD/svg11.dtd">
<svg version="1.1" id="Layer_1" xmlns="http://www.w3.org/2000/svg" xmlns:xlink="http://www.w3.org/1999/xlink" x="0px" y="0px"
	 width="1037px" height="259px" viewBox="0 0 1037 259" enable-background="new 0 0 1037 259" xml:space="preserve">
<g>
	<defs>
		<rect id="SVGID_1_" x="-85" y="-217" width="1200" height="630"/>
	</defs>
	<clipPath id="SVGID_2_">
		<use xlink:href="#SVGID_1_"  overflow="visible"/>
	</clipPath>
	<path clip-path="url(#SVGID_2_)" fill="#F2F2F2" d="M28.92,79.935c2.25-2.25,2.97-5.43,2.19-8.29l8.12-8.12
		c2.72,1.58,5.78,2.31,8.83,2.19l3.61,13.09c-3.33,3.33-3.33,8.73,0,12.06s8.73,3.33,12.07,0c3.33-3.33,3.33-8.73,0-12.07
		c-1.13-1.13-2.5-1.86-3.94-2.23l-3.68-13.32c1.03-0.65,2.02-1.4,2.91-2.3c1.13-1.13,2.05-2.39,2.79-3.73l13.58,3.75
		c0.36,1.44,1.1,2.81,2.23,3.94c3.33,3.33,8.73,3.33,12.07,0c3.33-3.33,3.33-8.73,0-12.07c-3.33-3.33-8.73-3.33-12.06,0l-13.82-3.82
		c-0.04-1.83-0.38-3.65-1.03-5.39c9.92-6.1,21.36-9.37,33.3-9.37c17.03,0,33.04,6.63,45.08,18.67
		c10.18,10.18,16.51,23.27,18.21,37.39c-0.18,0.15-0.35,0.3-0.51,0.47c-3.33,3.33-3.33,8.729,0,12.07c3.33,3.33,8.73,3.33,12.07,0
		c3.33-3.33,3.33-8.73,0-12.07c-0.44-0.44-0.93-0.82-1.43-1.15c-1.87-16.57-9.24-31.94-21.17-43.86
		c-13.95-13.95-32.5-21.64-52.24-21.64c-14.26,0-27.89,4.03-39.63,11.52c-2.64-1.74-5.66-2.63-8.7-2.69l-3.81-13.82
		c3.33-3.33,3.33-8.73,0-12.06s-8.73-3.33-12.07,0c-3.34,3.33-3.33,8.73,0,12.07c1.13,1.13,2.5,1.86,3.94,2.23l3.75,13.58
		c-1.34,0.73-2.6,1.65-3.73,2.79c-0.9,0.9-1.66,1.88-2.3,2.91l-13.34-3.68c-0.36-1.44-1.1-2.81-2.23-3.94
		c-3.33-3.33-8.73-3.33-12.07,0c-3.33,3.33-3.33,8.73,0,12.07c3.33,3.33,8.73,3.33,12.06,0l13.09,3.61
		c-0.11,3.05,0.62,6.11,2.19,8.83l-8.12,8.12c-2.86-0.78-6.04-0.06-8.29,2.19c-3.33,3.33-3.33,8.73,0,12.07
		C20.18,83.265,25.58,83.265,28.92,79.935"/>
	<path clip-path="url(#SVGID_2_)" fill="#F2F2F2" d="M186.28,150.895c-3.33-3.329-8.73-3.329-12.06,0l-13.09-3.609
		c0.11-3.05-0.62-6.11-2.19-8.83l8.12-8.12c2.86,0.78,6.05,0.06,8.29-2.19c3.33-3.329,3.33-8.729,0-12.069
		c-3.33-3.33-8.73-3.33-12.07,0c-2.25,2.25-2.97,5.43-2.19,8.29l-8.12,8.12c-2.72-1.58-5.78-2.311-8.83-2.19l-3.61-13.09
		c3.33-3.33,3.33-8.73,0-12.061c-3.33-3.329-8.73-3.329-12.07,0c-3.33,3.33-3.33,8.73,0,12.07c1.13,1.13,2.5,1.86,3.94,2.23
		l3.68,13.319c-1.03,0.651-2.02,1.401-2.91,2.301c-1.13,1.13-2.05,2.39-2.79,3.729l-13.58-3.75c-0.36-1.439-1.1-2.81-2.23-3.939
		c-3.33-3.33-8.73-3.33-12.07,0c-3.33,3.329-3.33,8.729,0,12.069c3.33,3.33,8.73,3.33,12.06,0l13.82,3.811
		c0.04,1.819,0.38,3.64,1.02,5.37c-24.55,15.029-57.14,11.949-78.37-9.28c-9.73-9.73-15.97-22.21-17.97-35.67
		c0.11-0.101,0.23-0.2,0.33-0.3c3.33-3.33,3.33-8.73,0-12.07c-3.33-3.341-8.73-3.33-12.07,0c-3.33,3.33-3.33,8.729,0,12.07
		c0.5,0.5,1.05,0.92,1.64,1.27c2.23,15.8,9.51,30.46,20.91,41.86c14.4,14.399,33.32,21.6,52.24,21.6c13.79,0,27.57-3.85,39.61-11.5
		c2.64,1.75,5.67,2.64,8.72,2.7l3.81,13.82c-3.33,3.329-3.33,8.729,0,12.06c3.33,3.33,8.73,3.33,12.07,0
		c3.33-3.33,3.33-8.73,0-12.07c-1.13-1.13-2.5-1.859-3.94-2.229l-3.75-13.58c1.34-0.73,2.6-1.65,3.73-2.79
		c0.9-0.9,1.66-1.88,2.3-2.91l13.32,3.68c0.36,1.44,1.1,2.811,2.23,3.94c3.33,3.33,8.73,3.33,12.07,0
		C189.61,159.635,189.61,154.225,186.28,150.895"/>
	<path clip-path="url(#SVGID_2_)" fill="#F2F2F2" d="M289.73,89.055v41.18c0,2.43-0.71,4.3-2.14,5.62
		c-1.42,1.319-3.4,1.979-5.94,1.979c-2.43,0-4.36-0.69-5.78-2.06c-1.43-1.37-2.14-3.22-2.14-5.54v-40.38
		c0-6.55-1.29-11.35-3.88-14.41c-2.59-3.06-6.63-4.59-12.12-4.59c-6.44,0-11.62,2.01-15.52,6.02c-3.91,4.01-5.86,9.4-5.86,16.15
		v37.22c0,2.32-0.71,4.17-2.14,5.54s-3.35,2.061-5.78,2.061c-2.43,0-4.38-0.69-5.86-2.061s-2.22-3.22-2.22-5.54v-64.47
		c0-2.22,0.76-4.04,2.3-5.46c1.53-1.43,3.46-2.14,5.78-2.14c2.32,0,4.17,0.69,5.54,2.06c1.37,1.37,2.06,3.17,2.06,5.38v6.49
		c2.53-4.64,6.07-8.18,10.61-10.61c4.54-2.43,9.66-3.64,15.36-3.64C280.49,57.855,289.73,68.255,289.73,89.055"/>
	<path clip-path="url(#SVGID_2_)" fill="#F2F2F2" d="M371.76,119.305c0.95,1.16,1.43,2.641,1.43,4.431c0,3.06-1.9,5.649-5.7,7.76
		c-3.7,2.11-7.74,3.75-12.12,4.91c-4.38,1.16-8.58,1.739-12.59,1.739c-12.25,0-21.91-3.56-28.98-10.689s-10.61-16.87-10.61-29.22
		c0-7.92,1.56-14.94,4.67-21.06c3.11-6.12,7.5-10.87,13.14-14.25c5.65-3.38,12.06-5.07,19.24-5.07c10.35,0,18.53,3.33,24.55,9.98
		c6.02,6.65,9.03,15.63,9.03,26.92c0,4.22-1.9,6.33-5.7,6.33h-48.94c1.05,16.37,8.92,24.55,23.6,24.55c3.91,0,7.29-0.529,10.14-1.58
		c2.85-1.05,5.86-2.43,9.03-4.119c0.32-0.211,1.19-0.66,2.61-1.351c1.43-0.69,2.61-1.03,3.56-1.03
		C369.6,117.565,370.81,118.145,371.76,119.305 M325.84,75.435c-3.7,3.91-5.91,9.4-6.65,16.47h40.86
		c-0.32-7.18-2.14-12.69-5.46-16.55c-3.33-3.85-8-5.78-14.02-5.78C334.44,69.575,329.53,71.535,325.84,75.435"/>
	<path clip-path="url(#SVGID_2_)" fill="#F2F2F2" d="M453.09,60.235c1.43,1.37,2.14,3.27,2.14,5.7v64.459
		c0,2.221-0.74,4.011-2.22,5.382c-1.48,1.368-3.43,2.059-5.86,2.059c-2.22,0-4.01-0.66-5.38-1.979c-1.37-1.32-2.06-3.091-2.06-5.311
		v-6.019c-2.43,4.429-5.78,7.809-10.06,10.139c-4.28,2.32-9.05,3.479-14.33,3.479c-18.79,0-28.19-10.35-28.19-31.039v-41.17
		c0-2.43,0.71-4.33,2.14-5.7c1.43-1.37,3.41-2.06,5.94-2.06c2.43,0,4.35,0.69,5.78,2.06s2.14,3.27,2.14,5.7v41.02
		c0,6.229,1.27,10.821,3.8,13.78c2.53,2.96,6.44,4.43,11.72,4.43c6.23,0,11.22-2,14.97-6.021c3.75-4.01,5.62-9.34,5.62-16V65.935
		c0-2.32,0.74-4.2,2.22-5.62c1.48-1.43,3.43-2.14,5.86-2.14C449.729,58.175,451.66,58.865,453.09,60.235"/>
	<path clip-path="url(#SVGID_2_)" fill="#F2F2F2" d="M521.74,64.665c0,2.32-0.58,4.07-1.74,5.23s-3.17,1.85-6.02,2.06l-4.75,0.48
		c-6.65,0.63-11.59,2.96-14.81,6.97c-3.22,4.01-4.83,8.87-4.83,14.57v36.27c0,2.53-0.74,4.43-2.22,5.7
		c-1.48,1.27-3.38,1.899-5.7,1.899c-2.32,0-4.25-0.63-5.78-1.899c-1.53-1.271-2.3-3.17-2.3-5.7v-64.47c0-2.43,0.76-4.3,2.3-5.62
		c1.53-1.32,3.46-1.98,5.78-1.98c2.11,0,3.88,0.66,5.31,1.98c1.43,1.32,2.14,3.14,2.14,5.46v7.6c2.11-4.64,5.17-8.18,9.19-10.61
		c4.01-2.43,8.55-3.85,13.62-4.28l2.22-0.16C519.21,57.855,521.74,60.025,521.74,64.665"/>
	<path clip-path="url(#SVGID_2_)" fill="#F2F2F2" d="M539.56,133.244c-5.761-3.27-10.189-7.939-13.3-14.02
		c-3.12-6.069-4.67-13.119-4.67-21.14c0-8.13,1.561-15.23,4.67-21.299c3.11-6.071,7.55-10.741,13.3-14.021
		c5.75-3.27,12.431-4.91,20.03-4.91c7.601,0,14.28,1.64,20.03,4.91c5.75,3.271,10.19,7.95,13.3,14.021
		c3.11,6.069,4.67,13.169,4.67,21.299c0,8.03-1.56,15.07-4.67,21.14c-3.121,6.07-7.55,10.75-13.3,14.02
		c-5.76,3.271-12.43,4.911-20.03,4.911C551.99,138.155,545.31,136.515,539.56,133.244 M575.82,118.515
		c3.75-4.64,5.62-11.46,5.62-20.43c0-8.87-1.9-15.65-5.7-20.351c-3.8-4.699-9.191-7.05-16.15-7.05c-6.96,0-12.35,2.351-16.149,7.05
		c-3.801,4.7-5.7,11.48-5.7,20.351c0,8.98,1.87,15.79,5.62,20.43c3.75,4.65,9.159,6.971,16.229,6.971S572.08,123.165,575.82,118.515
		"/>
	<path clip-path="url(#SVGID_2_)" fill="#F2F2F2" d="M726.04,89.055v41.18c0,2.43-0.74,4.3-2.22,5.62
		c-1.48,1.319-3.431,1.979-5.86,1.979c-2.32,0-4.22-0.66-5.7-1.979c-1.479-1.32-2.22-3.19-2.22-5.62v-41.02
		c0-6.44-1.16-11.11-3.479-14.02c-2.32-2.9-5.971-4.35-10.931-4.35c-5.81,0-10.4,1.98-13.78,5.94s-5.069,9.37-5.069,16.23v37.22
		c0,2.43-0.74,4.3-2.22,5.62c-1.48,1.319-3.431,1.979-5.86,1.979c-2.32,0-4.221-0.66-5.7-1.979c-1.48-1.32-2.22-3.19-2.22-5.62
		v-41.02c0-6.44-1.16-11.11-3.48-14.02c-2.319-2.9-5.97-4.35-10.93-4.35c-5.81,0-10.431,1.98-13.86,5.94s-5.149,9.37-5.149,16.23
		v37.22c0,2.43-0.74,4.3-2.22,5.62c-1.48,1.319-3.381,1.979-5.701,1.979c-2.319,0-4.25-0.66-5.779-1.979
		c-1.53-1.32-2.3-3.19-2.3-5.62v-64.46c0-2.32,0.79-4.17,2.38-5.54c1.58-1.37,3.479-2.06,5.699-2.06c2.221,0,4.041,0.66,5.461,1.98
		c1.43,1.32,2.14,3.14,2.14,5.46v5.86c2.32-4.43,5.54-7.81,9.66-10.14c4.12-2.32,8.87-3.48,14.25-3.48c5.91,0,10.79,1.22,14.65,3.64
		c3.85,2.43,6.729,6.18,8.629,11.24c2.32-4.54,5.75-8.16,10.29-10.85c4.541-2.69,9.71-4.04,15.521-4.04
		C717.38,57.855,726.04,68.255,726.04,89.055"/>
	<path clip-path="url(#SVGID_2_)" fill="#F2F2F2" d="M813.07,60.314c1.43,1.431,2.14,3.301,2.14,5.621v64.14
		c0,2.43-0.71,4.33-2.14,5.7c-1.431,1.369-3.351,2.06-5.78,2.06s-4.36-0.69-5.78-2.06c-1.43-1.37-2.14-3.271-2.14-5.7v-6.34
		c-2.32,4.649-5.7,8.21-10.142,10.689c-4.429,2.48-9.559,3.72-15.358,3.72c-6.76,0-12.72-1.659-17.9-4.989
		c-5.17-3.33-9.21-7.971-12.12-13.94c-2.91-5.96-4.359-12.91-4.359-20.83c0-8.13,1.449-15.259,4.359-21.38
		c2.9-6.12,6.94-10.85,12.12-14.17c5.17-3.33,11.141-4.989,17.9-4.989c5.81,0,10.93,1.27,15.358,3.8
		c4.432,2.529,7.812,6.12,10.142,10.77v-6.65c0-2.321,0.71-4.17,2.14-5.54s3.351-2.06,5.78-2.06
		C809.71,58.174,811.64,58.885,813.07,60.314 M793.75,118.355c3.75-4.75,5.62-11.511,5.62-20.271c0-8.759-1.88-15.521-5.62-20.271
		c-3.75-4.75-9.11-7.129-16.07-7.129c-6.97,0-12.38,2.399-16.229,7.21c-3.86,4.81-5.78,11.64-5.78,20.509
		c0,8.551,1.93,15.201,5.78,19.961c3.85,4.75,9.27,7.13,16.229,7.13C784.64,125.485,790,123.105,793.75,118.355"/>
	<path clip-path="url(#SVGID_2_)" fill="#F2F2F2" d="M876.41,127.465c1,1,1.5,2.4,1.5,4.2c0,2.11-0.82,3.72-2.45,4.83
		c-1.64,1.11-4.04,1.56-7.21,1.35l-4.279-0.319c-8.551-0.631-14.94-3.25-19.161-7.841c-4.22-4.59-6.339-11.38-6.339-20.35v-37.22
		h-9.5c-4.65,0-6.971-2.06-6.971-6.18c0-1.9,0.61-3.41,1.82-4.51c1.21-1.11,2.93-1.66,5.15-1.66h9.5v-16.32
		c0-2.43,0.709-4.33,2.14-5.7c1.43-1.37,3.35-2.06,5.778-2.06c2.432,0,4.382,0.69,5.861,2.06c1.48,1.37,2.221,3.27,2.221,5.7v16.31
		h15.68c2.22,0,3.93,0.55,5.149,1.66c1.21,1.11,1.82,2.61,1.82,4.51c0,2.01-0.61,3.54-1.82,4.59c-1.22,1.06-2.93,1.58-5.149,1.58
		h-15.68v38.33c0,4.96,1.029,8.61,3.089,10.931c2.061,2.319,5.2,3.64,9.421,3.96l4.43,0.319
		C873.75,125.855,875.41,126.465,876.41,127.465"/>
	<path clip-path="url(#SVGID_2_)" fill="#F2F2F2" d="M898.9,133.245c-5.65-3.271-10.03-7.92-13.141-13.94
		c-3.12-6.02-4.67-12.989-4.67-20.909c0-8.021,1.61-15.101,4.83-21.22c3.22-6.12,7.73-10.87,13.54-14.25
		c5.81-3.38,12.46-5.07,19.96-5.07c4.01,0,8.05,0.58,12.12,1.74c4.06,1.16,7.68,2.75,10.85,4.75c3.38,2.32,5.07,5.02,5.07,8.08
		c0,1.8-0.479,3.3-1.42,4.51c-0.95,1.22-2.17,1.82-3.64,1.82c-0.95,0-1.9-0.24-2.852-0.71c-0.949-0.48-2.17-1.19-3.639-2.14
		c-2.641-1.69-5.09-2.98-7.36-3.88c-2.27-0.9-4.99-1.35-8.16-1.35c-7.18,0-12.75,2.43-16.71,7.29
		c-3.96,4.86-5.939,11.62-5.939,20.271c0,8.659,1.95,15.34,5.859,20.029c3.9,4.7,9.45,7.051,16.631,7.051
		c3.17,0,5.96-0.48,8.39-1.431s4.91-2.22,7.439-3.8c1.16-0.74,2.319-1.37,3.48-1.9c1.16-0.529,2.22-0.79,3.17-0.79
		c1.48,0,2.69,0.61,3.64,1.82c0.949,1.22,1.42,2.72,1.42,4.509c0,1.481-0.399,2.831-1.189,4.041c-0.79,1.221-2.14,2.45-4.04,3.721
		c-3.17,2.109-6.87,3.75-11.09,4.909c-4.22,1.16-8.5,1.74-12.83,1.74C911.12,138.155,904.55,136.515,898.9,133.245"/>
	<path clip-path="url(#SVGID_2_)" fill="#F2F2F2" d="M1027.42,89.055v41.18c0,2.32-0.74,4.17-2.22,5.54
		c-1.48,1.369-3.43,2.06-5.86,2.06c-2.43,0-4.359-0.69-5.78-2.06c-1.42-1.37-2.14-3.22-2.14-5.54v-41.02
		c0-6.33-1.29-10.98-3.88-13.94s-6.63-4.43-12.12-4.43c-6.439,0-11.62,2.01-15.52,6.02c-3.91,4.01-5.86,9.4-5.86,16.15v37.22
		c0,2.32-0.71,4.17-2.14,5.54c-1.42,1.369-3.351,2.06-5.78,2.06c-2.429,0-4.38-0.69-5.86-2.06c-1.479-1.37-2.22-3.22-2.22-5.54
		v-98.03c0-2.32,0.76-4.17,2.3-5.54c1.53-1.37,3.51-2.06,5.94-2.06c2.319,0,4.2,0.66,5.62,1.979c1.43,1.32,2.14,3.09,2.14,5.31
		v39.59c2.64-4.43,6.18-7.81,10.61-10.14c4.43-2.32,9.5-3.48,15.199-3.48C1018.23,57.855,1027.42,68.255,1027.42,89.055"/>
</g>
<g>
	<path fill="#DE80FF" d="M694.934,206.017c1.816-0.233,3.031-0.994,3.646-2.281c0.352-0.706,0.527-1.72,0.527-3.044
		c0-2.705-0.958-4.668-2.873-5.889s-4.656-1.831-8.223-1.831c-4.123,0-7.047,1.119-8.771,3.356
		c-0.965,1.237-1.594,3.077-1.886,5.521h-7.383c0.146-5.817,2.026-9.864,5.64-12.142c3.614-2.276,7.807-3.415,12.576-3.415
		c5.529,0,10.021,1.055,13.475,3.164c3.424,2.109,5.136,5.391,5.136,9.845v27.115c0,0.82,0.169,1.479,0.505,1.977
		c0.337,0.497,1.048,0.746,2.132,0.746c0.352,0,0.747-0.021,1.187-0.066c0.439-0.043,0.908-0.108,1.406-0.196v5.844
		c-1.23,0.352-2.168,0.571-2.812,0.659s-1.523,0.132-2.637,0.132c-2.725,0-4.702-0.967-5.933-2.899
		c-0.645-1.025-1.099-2.476-1.362-4.351c-1.611,2.109-3.926,3.94-6.943,5.493c-3.018,1.552-6.344,2.328-9.976,2.328
		c-4.366,0-7.933-1.324-10.7-3.973c-2.77-2.647-4.153-5.961-4.153-9.94c0-4.36,1.362-7.739,4.087-10.139s6.299-3.878,10.723-4.434
		L694.934,206.017z M678.277,227.386c1.67,1.315,3.647,1.973,5.933,1.973c2.783,0,5.478-0.644,8.086-1.93
		c4.395-2.136,6.592-5.631,6.592-10.487v-6.361c-0.966,0.617-2.208,1.132-3.728,1.543c-1.521,0.412-3.012,0.705-4.474,0.88
		l-4.78,0.615c-2.865,0.38-5.021,0.979-6.465,1.798c-2.445,1.374-3.669,3.566-3.669,6.577
		C675.772,224.272,676.607,226.07,678.277,227.386z"/>
	<path fill="#DE80FF" d="M750.854,189.939c3.324,2.578,5.324,7.017,5.998,13.315h-7.69c-0.469-2.9-1.538-5.31-3.208-7.229
		c-1.67-1.918-4.351-2.878-8.042-2.878c-5.039,0-8.643,2.458-10.811,7.374c-1.406,3.189-2.109,7.125-2.109,11.807
		c0,4.711,0.995,8.676,2.988,11.895c1.992,3.22,5.126,4.828,9.404,4.828c3.28,0,5.882-0.999,7.8-2.999
		c1.919-1.998,3.245-4.734,3.978-8.207h7.69c-0.879,6.24-3.076,10.804-6.592,13.688c-3.516,2.887-8.014,4.329-13.491,4.329
		c-6.152,0-11.06-2.248-14.722-6.745s-5.493-10.115-5.493-16.854c0-8.262,2.007-14.692,6.021-19.292s9.125-6.899,15.337-6.899
		C743.213,186.072,747.527,187.361,750.854,189.939z"/>
	<path fill="#DE80FF" d="M789.986,206.017c1.816-0.233,3.033-0.994,3.648-2.281c0.351-0.706,0.526-1.72,0.526-3.044
		c0-2.705-0.958-4.668-2.873-5.889s-4.656-1.831-8.223-1.831c-4.122,0-7.047,1.119-8.771,3.356
		c-0.965,1.237-1.593,3.077-1.886,5.521h-7.383c0.146-5.817,2.026-9.864,5.641-12.142c3.613-2.276,7.805-3.415,12.574-3.415
		c5.531,0,10.023,1.055,13.477,3.164c3.423,2.109,5.135,5.391,5.135,9.845v27.115c0,0.82,0.168,1.479,0.506,1.977
		c0.336,0.497,1.047,0.746,2.131,0.746c0.352,0,0.747-0.021,1.187-0.066c0.439-0.043,0.907-0.108,1.406-0.196v5.844
		c-1.23,0.352-2.169,0.571-2.812,0.659c-0.645,0.088-1.523,0.132-2.637,0.132c-2.725,0-4.702-0.967-5.933-2.899
		c-0.645-1.025-1.099-2.476-1.362-4.351c-1.611,2.109-3.927,3.94-6.943,5.493c-3.018,1.552-6.343,2.328-9.976,2.328
		c-4.365,0-7.932-1.324-10.701-3.973c-2.768-2.647-4.152-5.961-4.152-9.94c0-4.36,1.362-7.739,4.087-10.139
		s6.299-3.878,10.723-4.434L789.986,206.017z M773.331,227.386c1.67,1.315,3.647,1.973,5.933,1.973c2.783,0,5.479-0.644,8.086-1.93
		c4.395-2.136,6.592-5.631,6.592-10.487v-6.361c-0.965,0.617-2.207,1.132-3.729,1.543c-1.52,0.412-3.011,0.705-4.473,0.88
		l-4.781,0.615c-2.865,0.38-5.02,0.979-6.463,1.798c-2.447,1.374-3.67,3.566-3.67,6.577
		C770.826,224.272,771.661,226.07,773.331,227.386z"/>
	<path fill="#DE80FF" d="M840.674,188.885c1.4,0.879,2.991,2.417,4.771,4.614v-23.774h7.603V234.5h-7.119v-6.548
		c-1.839,2.9-4.014,4.995-6.522,6.284c-2.512,1.289-5.385,1.934-8.625,1.934c-5.225,0-9.748-2.204-13.57-6.613
		c-3.824-4.409-5.735-10.276-5.735-17.601c0-6.855,1.743-12.795,5.231-17.819c3.486-5.024,8.47-7.537,14.949-7.537
		C835.246,186.6,838.252,187.361,840.674,188.885z M823.017,224.173c2.128,3.398,5.538,5.098,10.231,5.098
		c3.644,0,6.639-1.574,8.985-4.724s3.52-7.669,3.52-13.558c0-5.947-1.21-10.349-3.629-13.206c-2.42-2.855-5.407-4.284-8.964-4.284
		c-3.965,0-7.178,1.523-9.641,4.57s-3.694,7.529-3.694,13.447C819.825,216.556,820.889,220.774,823.017,224.173z"/>
	<path fill="#DE80FF" d="M893.94,188.73c3.115,1.568,5.488,3.597,7.119,6.087c1.572,2.373,2.62,5.142,3.145,8.306
		c0.466,2.168,0.699,5.625,0.699,10.371H870.67c0.146,4.789,1.265,8.631,3.357,11.524c2.094,2.894,5.334,4.34,9.723,4.34
		c4.1,0,7.369-1.368,9.812-4.105c1.366-1.589,2.335-3.429,2.904-5.519h7.778c-0.205,1.729-0.887,3.655-2.043,5.779
		c-1.158,2.124-2.449,3.859-3.873,5.207c-2.385,2.344-5.336,3.926-8.854,4.746c-1.891,0.469-4.027,0.703-6.412,0.703
		c-5.822,0-10.757-2.131-14.805-6.395c-4.047-4.262-6.069-10.231-6.069-17.907c0-7.559,2.038-13.696,6.114-18.413
		s9.404-7.075,15.985-7.075C887.607,186.38,890.824,187.164,893.94,188.73z M896.773,207.21c-0.32-3.428-1.061-6.167-2.223-8.218
		c-2.15-3.809-5.738-5.713-10.764-5.713c-3.602,0-6.623,1.312-9.063,3.934s-3.733,5.954-3.878,9.997H896.773z"/>
	<path fill="#DE80FF" d="M914.923,187.435h7.822v6.68c1.874-2.314,3.574-3.999,5.098-5.054c2.607-1.787,5.565-2.681,8.877-2.681
		c3.75,0,6.768,0.923,9.053,2.769c1.289,1.055,2.461,2.607,3.516,4.658c1.758-2.52,3.823-4.387,6.196-5.604
		c2.373-1.215,5.039-1.823,7.998-1.823c6.328,0,10.635,2.285,12.92,6.855c1.23,2.461,1.846,5.771,1.846,9.932V234.5h-8.218v-32.695
		c0-3.135-0.784-5.288-2.352-6.46s-3.479-1.758-5.734-1.758c-3.105,0-5.779,1.04-8.02,3.12c-2.242,2.08-3.362,5.552-3.362,10.415
		V234.5h-8.042v-30.718c0-3.193-0.381-5.522-1.143-6.987c-1.201-2.197-3.442-3.296-6.724-3.296c-2.988,0-5.706,1.157-8.152,3.472
		c-2.445,2.314-3.669,6.504-3.669,12.568V234.5h-7.91V187.435z"/>
	<path fill="#DE80FF" d="M1019.315,187.435h8.744c-1.113,3.02-3.589,9.907-7.426,20.664c-2.872,8.09-5.273,14.685-7.207,19.784
		c-4.566,12.003-7.786,19.321-9.659,21.957c-1.873,2.635-5.093,3.952-9.659,3.952c-1.112,0-1.969-0.044-2.569-0.132
		c-0.6-0.088-1.339-0.249-2.217-0.483v-7.207c1.375,0.381,2.369,0.615,2.982,0.703c0.614,0.088,1.156,0.132,1.624,0.132
		c1.462,0,2.537-0.242,3.224-0.724c0.688-0.482,1.266-1.074,1.734-1.776c0.146-0.234,0.672-1.434,1.578-3.596
		c0.906-2.165,1.565-3.772,1.976-4.824l-17.402-48.45h8.965l12.611,38.338L1019.315,187.435z"/>
</g>
</svg>
