<?xml version="1.0" encoding="utf-8"?>
<!-- Generator: Adobe Illustrator 25.4.1, SVG Export Plug-In . SVG Version: 6.00 Build 0)  -->
<svg version="1.1" id="Layer_1" xmlns="http://www.w3.org/2000/svg" xmlns:xlink="http://www.w3.org/1999/xlink" x="0px" y="0px"
	 viewBox="0 0 1023.8 224.9" style="enable-background:new 0 0 1023.8 224.9;" xml:space="preserve">
<style type="text/css">
	.st0{fill:#222222;}
	.st1{font-family:'Nunito-Medium';}
	.st2{font-size:100px;}
</style>
<path class="st0" d="M25.3,75.2c2.2-2.2,3-5.3,2.2-8.3l8.1-8.1c2.7,1.6,5.7,2.3,8.8,2.2L48,74.1c-3.3,3.4-3.3,8.7,0,12.1
	c3.3,3.3,8.7,3.4,12.1,0c0,0,0,0,0,0l0,0c3.3-3.4,3.3-8.7,0-12.1c-1.1-1.1-2.4-1.8-3.9-2.2l-3.7-13.3c1-0.7,2-1.4,2.9-2.3
	c1.1-1.1,2-2.4,2.8-3.7l13.6,3.7c0.4,1.5,1.1,2.8,2.2,3.9c3.3,3.3,8.8,3.3,12.1,0s3.3-8.8,0-12.1s-8.8-3.3-12.1,0c0,0,0,0,0,0l0,0
	l-13.8-3.8c0-1.8-0.4-3.7-1-5.4c30-18.4,69.3-9,87.7,21c4.8,7.8,7.8,16.6,8.9,25.7c-0.2,0.2-0.4,0.3-0.5,0.5
	c-3.3,3.3-3.3,8.8,0,12.1s8.8,3.3,12.1,0s3.3-8.8,0-12.1c0,0,0,0,0,0l0,0c-0.4-0.4-0.9-0.8-1.4-1.2c-4.7-40.6-41.3-69.7-81.9-65
	C73,21.2,62.4,25,53,30.9c-2.6-1.7-5.6-2.6-8.7-2.7l-3.8-13.8c3.3-3.4,3.3-8.7,0-12.1C37-0.9,31.6-0.8,28.4,2.7
	c-3.1,3.3-3.1,8.4,0,11.7c1.1,1.1,2.4,1.8,3.9,2.2l3.8,13.6c-1.4,0.7-2.6,1.7-3.7,2.8c-0.9,0.8-1.7,1.8-2.3,2.9l-13.3-3.7
	c-0.4-1.5-1.1-2.8-2.2-3.9c-3.4-3.3-8.7-3.3-12.1,0c-3.3,3.4-3.3,8.7,0,12.1c3.4,3.3,8.7,3.3,12.1,0L27.7,44
	c-0.1,3.1,0.6,6.1,2.2,8.8l-8.1,8.1c-3-0.8-6.1,0-8.3,2.2c-3.3,3.4-3.3,8.7,0,12.1c3,3.3,8.1,3.4,11.4,0.4
	C25,75.4,25.2,75.3,25.3,75.2z"/>
<path class="st0" d="M182.7,146.2c-3.4-3.3-8.7-3.3-12.1,0l-13.1-3.6c0.1-3.1-0.6-6.1-2.2-8.8l8.1-8.1c3,0.9,6.2,0,8.3-2.2
	c3.3-3.3,3.4-8.8,0-12.1c-3.3-3.3-8.8-3.4-12.1,0c-2.2,2.2-3,5.4-2.2,8.3l-8.1,8.1c-2.7-1.6-5.7-2.3-8.8-2.2l-3.6-13.1
	c3.3-3.4,3.3-8.7,0-12.1c-3.3-3.3-8.7-3.4-12.1,0c0,0,0,0,0,0l0,0c-3.3,3.4-3.3,8.7,0,12.1c1.1,1.1,2.4,1.8,3.9,2.2l3.7,13.3
	c-1.1,0.6-2.1,1.4-2.9,2.3c-1.1,1.1-2,2.3-2.8,3.7l-13.6-3.8c-0.4-1.5-1.1-2.8-2.2-3.9c-3.3-3.3-8.8-3.3-12.1,0
	c-3.3,3.3-3.3,8.8,0,12.1s8.8,3.3,12.1,0c0,0,0,0,0,0l0,0l13.8,3.8c0,1.8,0.4,3.7,1,5.4C95.6,166,56.3,156.5,38,126.5
	c-4.5-7.3-7.4-15.4-8.7-23.9l0.3-0.3c3.3-3.4,3.3-8.7,0-12.1c-3.3-3.3-8.7-3.4-12.1,0c0,0,0,0,0,0l0,0c-3.3,3.4-3.3,8.7,0,12.1
	c0.5,0.5,1,0.9,1.6,1.3c5.7,40.4,43.1,68.5,83.5,62.8c10.4-1.5,20.4-5.1,29.2-10.8c2.6,1.7,5.6,2.7,8.7,2.7l3.8,13.8
	c-3.3,3.4-3.3,8.7,0,12.1c3.3,3.3,8.7,3.4,12.1,0c0,0,0,0,0,0l0,0c3.3-3.4,3.3-8.7,0-12.1c-1.1-1.1-2.4-1.8-3.9-2.2l-3.8-13.6
	c1.4-0.7,2.6-1.7,3.7-2.8c0.9-0.8,1.7-1.8,2.3-2.9l13.3,3.7c0.4,1.5,1.1,2.8,2.2,3.9c3.4,3.3,8.7,3.3,12.1,0c3.4-2.9,3.8-8,0.9-11.4
	c0,0,0,0-0.1-0.1C183,146.5,182.8,146.4,182.7,146.2z"/>
<path class="st0" d="M286.1,84.4v41.2c0.1,2.1-0.6,4.1-2.1,5.6c-1.6,1.4-3.7,2.1-5.9,2c-2.1,0.1-4.2-0.6-5.8-2.1
	c-1.4-1.5-2.2-3.5-2.1-5.5V85.2c0-6.6-1.3-11.3-3.9-14.4s-6.6-4.6-12.1-4.6c-6.4,0-11.6,2-15.5,6s-5.9,9.4-5.9,16.2v37.2
	c0.1,2-0.7,4-2.1,5.5c-3.4,2.8-8.3,2.8-11.7,0c-1.5-1.4-2.3-3.4-2.2-5.5V61.1c0-2.1,0.8-4.1,2.3-5.5c1.6-1.4,3.7-2.2,5.8-2.1
	c2-0.1,4,0.7,5.5,2.1c1.4,1.4,2.2,3.4,2.1,5.4v6.5c2.4-4.5,6.1-8.2,10.6-10.6c4.7-2.5,10-3.7,15.4-3.6
	C276.9,53.2,286.1,63.6,286.1,84.4z"/>
<path class="st0" d="M368.1,114.6c1,1.2,1.5,2.8,1.4,4.4c0,3.1-1.9,5.7-5.7,7.8c-3.8,2.2-7.9,3.8-12.1,4.9
	c-4.1,1.1-8.3,1.6-12.6,1.7c-12.2,0-21.9-3.6-29-10.7c-7.1-7.1-10.6-16.9-10.6-29.2c-0.1-7.3,1.5-14.5,4.7-21.1
	c2.9-5.9,7.5-10.8,13.1-14.2c5.8-3.4,12.5-5.2,19.2-5.1c10.4,0,18.5,3.3,24.5,10s9,15.6,9,26.9c0,4.2-1.9,6.3-5.7,6.3h-48.9
	c1,16.4,8.9,24.6,23.6,24.6c3.4,0.1,6.9-0.4,10.1-1.6c3.1-1.2,6.1-2.5,9-4.1c0.8-0.5,1.7-0.9,2.6-1.3c1.1-0.6,2.3-0.9,3.6-1
	C365.7,112.9,367.1,113.5,368.1,114.6z M322.2,70.7c-3.7,3.9-5.9,9.4-6.6,16.5h40.9c-0.3-7.2-2.1-12.7-5.5-16.5s-8-5.8-14-5.8
	C330.8,64.9,325.9,66.8,322.2,70.7z"/>
<path class="st0" d="M449.5,55.6c1.5,1.5,2.2,3.6,2.1,5.7v64.5c0.1,2-0.7,4-2.2,5.4c-1.6,1.5-3.7,2.2-5.9,2.1c-2,0.1-3.9-0.7-5.4-2
	c-1.4-1.4-2.2-3.3-2.1-5.3v-6c-2.3,4.3-5.8,7.8-10.1,10.1c-4.4,2.3-9.3,3.6-14.3,3.5c-18.8,0-28.2-10.3-28.2-31V61.2
	c-0.1-2.1,0.6-4.2,2.1-5.7c1.6-1.5,3.7-2.2,5.9-2.1c2.1-0.1,4.2,0.6,5.8,2.1c1.5,1.5,2.2,3.6,2.1,5.7v41c0,6.2,1.3,10.8,3.8,13.8
	s6.4,4.4,11.7,4.4c6.2,0,11.2-2,15-6s5.6-9.3,5.6-16V61.2c-0.1-2.1,0.7-4.1,2.2-5.6c1.6-1.5,3.7-2.2,5.9-2.1
	C445.7,53.4,447.8,54.2,449.5,55.6z"/>
<path class="st0" d="M518.1,60c0.1,1.9-0.5,3.7-1.7,5.2c-1.1,1.1-3.2,1.8-6,2.1l-4.8,0.5c-6.6,0.6-11.6,3-14.8,7
	c-3.2,4.2-4.9,9.3-4.8,14.6v36.3c0.2,2.1-0.6,4.2-2.2,5.7c-1.6,1.3-3.6,2-5.7,1.9c-2.1,0.1-4.2-0.6-5.8-1.9
	c-1.6-1.5-2.4-3.6-2.3-5.7V61.1c-0.1-2.1,0.7-4.2,2.3-5.6c1.6-1.3,3.7-2.1,5.8-2c2,0,3.8,0.7,5.3,2c1.5,1.4,2.2,3.4,2.1,5.5v7.6
	c1.9-4.4,5.1-8.1,9.2-10.6c4.2-2.4,8.8-3.9,13.6-4.3l2.2-0.2C515.6,53.2,518.1,55.3,518.1,60z"/>
<path class="st0" d="M535.9,128.6c-5.7-3.2-10.4-8.1-13.3-14c-3.2-6.6-4.8-13.8-4.7-21.1c-0.1-7.4,1.5-14.7,4.7-21.3
	c2.9-5.9,7.6-10.8,13.3-14c6.1-3.4,13-5.1,20-4.9c7.6,0,14.3,1.6,20,4.9c5.7,3.3,10.3,8.1,13.3,14c3.2,6.6,4.9,13.9,4.7,21.3
	c0.1,7.3-1.5,14.5-4.7,21.1c-2.9,5.9-7.5,10.8-13.3,14c-6.1,3.4-13,5.1-20,4.9C548.9,133.6,542,131.9,535.9,128.6z M572.2,113.8
	c3.8-4.6,5.6-11.5,5.6-20.4s-1.9-15.7-5.7-20.3s-9.2-7.1-16.2-7.1s-12.3,2.3-16.2,7.1S534,84.6,534,93.4c0,9,1.9,15.8,5.6,20.4
	s9.2,7,16.2,7C563,120.8,568.5,118.5,572.2,113.8z"/>
<path class="st0" d="M722.4,84.4v41.2c0.1,2.1-0.7,4.1-2.2,5.6c-3.4,2.7-8.2,2.7-11.6,0c-1.5-1.5-2.3-3.5-2.2-5.6v-41
	c0-6.4-1.2-11.1-3.5-14s-6-4.3-10.9-4.3c-5.8,0-10.4,2-13.8,5.9s-5.1,9.4-5.1,16.2v37.2c0.1,2.1-0.7,4.1-2.2,5.6
	c-3.4,2.7-8.2,2.7-11.6,0c-1.5-1.5-2.3-3.5-2.2-5.6v-41c0-6.4-1.2-11.1-3.5-14s-6-4.3-10.9-4.3c-5.3-0.2-10.4,2-13.9,5.9
	c-3.5,3.9-5.2,9.4-5.2,16.2v37.2c0.1,2.1-0.7,4.1-2.2,5.6c-1.6,1.3-3.6,2.1-5.7,2c-2.1,0-4.1-0.7-5.8-2c-1.6-1.4-2.4-3.5-2.3-5.6
	V61.1c-0.1-2.1,0.8-4.1,2.4-5.5c1.6-1.4,3.6-2.1,5.7-2.1c2,0,4,0.7,5.5,2c1.5,1.4,2.2,3.4,2.1,5.5v5.9c2.1-4.3,5.5-7.8,9.7-10.1
	c4.3-2.4,9.2-3.6,14.2-3.5c5.9,0,10.8,1.2,14.7,3.6c4,2.7,7,6.6,8.6,11.2c2.3-4.5,5.9-8.3,10.3-10.8c4.7-2.7,10.1-4.1,15.5-4
	C713.8,53.2,722.4,63.6,722.4,84.4z"/>
<path class="st0" d="M809.5,55.6c1.4,1.5,2.2,3.5,2.1,5.6v64.1c0.1,2.1-0.6,4.2-2.1,5.7c-3.4,2.8-8.2,2.8-11.6,0
	c-1.5-1.5-2.2-3.6-2.1-5.7V119c-2.2,4.5-5.7,8.3-10.1,10.7c-4.7,2.6-10,3.8-15.4,3.7c-6.3,0.1-12.5-1.6-17.9-5
	c-5.3-3.4-9.5-8.2-12.1-13.9c-3-6.5-4.5-13.6-4.4-20.8c-0.1-7.4,1.4-14.7,4.4-21.4c2.6-5.8,6.8-10.7,12.1-14.2
	c5.4-3.4,11.6-5.1,17.9-5c5.4-0.1,10.7,1.2,15.4,3.8c4.4,2.4,8,6.2,10.1,10.8V61c-0.1-2,0.7-4,2.1-5.5c1.6-1.5,3.7-2.2,5.8-2.1
	C805.8,53.4,807.9,54.2,809.5,55.6z M790.1,113.7c3.8-4.8,5.6-11.5,5.6-20.3s-1.9-15.5-5.6-20.3S781,66,774,66s-12.4,2.4-16.2,7.2
	S752,84.8,752,93.7c0,8.6,1.9,15.2,5.8,20s9.3,7.1,16.2,7.1S786.4,118.4,790.1,113.7z"/>
<path class="st0" d="M872.8,122.8c2.2,2.6,1.9,6.5-0.6,8.7c-0.1,0.1-0.2,0.2-0.4,0.3c-1.6,1.1-4,1.6-7.2,1.4l-4.3-0.3
	c-8.5-0.6-14.9-3.2-19.2-7.8c-4.3-4.6-6.3-11.4-6.3-20.3V67.4h-9.5c-4.7,0-7-2.1-7-6.2c-0.1-1.7,0.6-3.3,1.8-4.5
	c1.5-1.2,3.3-1.8,5.2-1.7h9.5V38.8c-0.1-2.1,0.6-4.2,2.1-5.7c1.6-1.5,3.7-2.2,5.8-2.1c2.2-0.1,4.3,0.7,5.9,2.1
	c1.5,1.5,2.3,3.6,2.2,5.7v16.3h15.7c1.9-0.1,3.7,0.5,5.2,1.7c1.2,1.2,1.9,2.8,1.8,4.5c0.1,1.7-0.6,3.4-1.8,4.6
	c-1.5,1.2-3.3,1.7-5.2,1.6h-15.7v38.3c0,5,1,8.6,3.1,10.9s5.2,3.6,9.4,4l4.4,0.3C870.1,121.2,871.8,121.8,872.8,122.8z"/>
<path class="st0" d="M895.3,128.6c-5.6-3.2-10.2-8.1-13.1-13.9c-3.2-6.5-4.8-13.7-4.7-20.9c-0.2-7.4,1.5-14.6,4.8-21.2
	c3-5.9,7.7-10.9,13.5-14.2c6.1-3.4,13-5.2,20-5.1c4.1,0,8.2,0.6,12.1,1.7c3.8,1.1,7.4,2.7,10.8,4.8c3.4,2.3,5.1,5,5.1,8.1
	c0,1.6-0.4,3.2-1.4,4.5c-0.9,1.1-2.2,1.8-3.6,1.8c-1,0-1.9-0.2-2.8-0.7c-1.2-0.6-2.4-1.3-3.6-2.1c-2.3-1.6-4.8-2.9-7.4-3.9
	c-2.6-0.9-5.4-1.4-8.2-1.3c-7.2,0-12.8,2.4-16.7,7.3s-5.9,11.6-5.9,20.3s2,15.3,5.9,20s9.5,7.1,16.6,7.1c2.9,0,5.7-0.4,8.4-1.4
	c2.6-1,5.1-2.3,7.4-3.8c1.1-0.7,2.3-1.3,3.5-1.9c1-0.5,2.1-0.7,3.2-0.8c1.4,0,2.8,0.6,3.6,1.8c1,1.3,1.5,2.9,1.4,4.5
	c0,1.4-0.4,2.8-1.2,4c-1.1,1.5-2.4,2.7-4,3.7c-3.4,2.2-7.2,3.9-11.1,4.9c-4.2,1.2-8.5,1.7-12.8,1.7
	C908.2,133.7,901.3,132,895.3,128.6z"/>
<path class="st0" d="M1023.8,84.4v41.2c0.1,2.1-0.7,4.1-2.2,5.5c-1.6,1.4-3.7,2.2-5.9,2.1c-2.1,0.1-4.2-0.6-5.8-2.1
	c-1.4-1.5-2.2-3.5-2.1-5.5v-41c0-6.3-1.3-11-3.9-13.9s-6.6-4.4-12.1-4.4c-6.4,0-11.6,2-15.5,6s-5.9,9.4-5.9,16.2v37.2
	c0.1,2-0.7,4-2.1,5.5c-1.6,1.5-3.7,2.2-5.8,2.1c-2.2,0.1-4.3-0.7-5.9-2.1c-1.5-1.4-2.3-3.4-2.2-5.5v-98c-0.1-2.1,0.8-4.1,2.3-5.5
	c1.6-1.4,3.7-2.2,5.9-2.1c2.1-0.1,4.1,0.6,5.6,2c1.4,1.4,2.2,3.3,2.1,5.3V67c2.5-4.3,6.2-7.8,10.6-10.1c4.7-2.4,9.9-3.6,15.2-3.5
	C1014.6,53.2,1023.8,63.6,1023.8,84.4z"/>
<text transform="matrix(1 0 0 1 860.1025 224.95)" class="st1 st2">box</text>
</svg>
