<svg id="Layer_1" data-name="Layer 1" xmlns="http://www.w3.org/2000/svg" viewBox="0 0 1023.78 224.95"><defs><style>.cls-1{fill:#222;}</style></defs><path class="cls-1" d="M25.3,75.4a8.5,8.5,0,0,0,2.2-8.3L35.6,59a16,16,0,0,0,8.8,2.2L48,74.3a8.63,8.63,0,0,0,0,12.1,8.54,8.54,0,0,0,12.1,0h0a8.63,8.63,0,0,0,0-12.1,8.44,8.44,0,0,0-3.9-2.2L52.5,58.8a20.91,20.91,0,0,0,2.9-2.3,20,20,0,0,0,2.8-3.7l13.6,3.7A8.44,8.44,0,0,0,74,60.4a8.56,8.56,0,1,0,0-12.1h0L60.2,44.5a16.64,16.64,0,0,0-1-5.4,63.75,63.75,0,0,1,96.6,46.7c-.2.2-.4.3-.5.5a8.56,8.56,0,1,0,12.1,0h0a17.41,17.41,0,0,0-1.4-1.2,73.93,73.93,0,0,0-113-54,16.81,16.81,0,0,0-8.7-2.7L40.5,14.6a8.63,8.63,0,0,0,0-12.1A8.56,8.56,0,0,0,28.4,14.6a8.44,8.44,0,0,0,3.9,2.2l3.8,13.6a14.45,14.45,0,0,0-3.7,2.8,12.78,12.78,0,0,0-2.3,2.9L16.8,32.4a8.44,8.44,0,0,0-2.2-3.9,8.63,8.63,0,0,0-12.1,0,8.63,8.63,0,0,0,0,12.1,8.63,8.63,0,0,0,12.1,0l13.1,3.6A16,16,0,0,0,29.9,53l-8.1,8.1a8.5,8.5,0,0,0-8.3,2.2,8.63,8.63,0,0,0,0,12.1,8.07,8.07,0,0,0,11.4.4C25,75.6,25.2,75.5,25.3,75.4Z" transform="translate(-0.02 -0.18)"/><path class="cls-1" d="M182.7,146.4a8.63,8.63,0,0,0-12.1,0l-13.1-3.6a16,16,0,0,0-2.2-8.8l8.1-8.1a8.22,8.22,0,0,0,8.3-2.2,8.56,8.56,0,1,0-14.3-3.8l-8.1,8.1a16,16,0,0,0-8.8-2.2l-3.6-13.1a8.63,8.63,0,0,0,0-12.1,8.54,8.54,0,0,0-12.1,0h0a8.63,8.63,0,0,0,0,12.1,8.44,8.44,0,0,0,3.9,2.2l3.7,13.3a12.78,12.78,0,0,0-2.9,2.3,17.15,17.15,0,0,0-2.8,3.7l-13.6-3.8a8.44,8.44,0,0,0-2.2-3.9,8.56,8.56,0,1,0,0,12.1h0l13.8,3.8a16.64,16.64,0,0,0,1,5.4,63.81,63.81,0,0,1-96.4-45l.3-.3a8.63,8.63,0,0,0,0-12.1,8.54,8.54,0,0,0-12.1,0h0a8.63,8.63,0,0,0,0,12.1,10.1,10.1,0,0,0,1.6,1.3,73.88,73.88,0,0,0,83.5,62.8,72.73,72.73,0,0,0,29.2-10.8,15.94,15.94,0,0,0,8.7,2.7l3.8,13.8a8.63,8.63,0,0,0,0,12.1,8.54,8.54,0,0,0,12.1,0h0a8.63,8.63,0,0,0,0-12.1,8.44,8.44,0,0,0-3.9-2.2l-3.8-13.6a14.45,14.45,0,0,0,3.7-2.8,12.78,12.78,0,0,0,2.3-2.9l13.3,3.7a8.44,8.44,0,0,0,2.2,3.9,8.63,8.63,0,0,0,12.1,0,8.11,8.11,0,0,0,.8-11.5C183,146.7,182.8,146.6,182.7,146.4Z" transform="translate(-0.02 -0.18)"/><path class="cls-1" d="M286.1,84.6v41.2a7.3,7.3,0,0,1-2.1,5.6,8.32,8.32,0,0,1-5.9,2,7.89,7.89,0,0,1-5.8-2.1,7.61,7.61,0,0,1-2.1-5.5V85.4c0-6.6-1.3-11.3-3.9-14.4s-6.6-4.6-12.1-4.6c-6.4,0-11.6,2-15.5,6s-5.9,9.4-5.9,16.2v37.2a7.61,7.61,0,0,1-2.1,5.5,9.2,9.2,0,0,1-11.7,0,7,7,0,0,1-2.2-5.5V61.3a7.47,7.47,0,0,1,2.3-5.5,8.32,8.32,0,0,1,5.8-2.1,7.61,7.61,0,0,1,5.5,2.1,7.23,7.23,0,0,1,2.1,5.4v6.5a25.78,25.78,0,0,1,10.6-10.6,31.75,31.75,0,0,1,15.4-3.6C276.9,53.4,286.1,63.8,286.1,84.6Z" transform="translate(-0.02 -0.18)"/><path class="cls-1" d="M368.1,114.8a6.3,6.3,0,0,1,1.4,4.4q0,4.65-5.7,7.8a48.78,48.78,0,0,1-12.1,4.9,53.13,53.13,0,0,1-12.6,1.7c-12.2,0-21.9-3.6-29-10.7S299.5,106,299.5,93.7a46.81,46.81,0,0,1,4.7-21.1,34.5,34.5,0,0,1,13.1-14.2,37.08,37.08,0,0,1,19.2-5.1c10.4,0,18.5,3.3,24.5,10s9,15.6,9,26.9q0,6.3-5.7,6.3H315.4c1,16.4,8.9,24.6,23.6,24.6a26.75,26.75,0,0,0,10.1-1.6,73,73,0,0,0,9-4.1,21,21,0,0,1,2.6-1.3,8.79,8.79,0,0,1,3.6-1A4.82,4.82,0,0,1,368.1,114.8ZM322.2,70.9q-5.55,5.85-6.6,16.5h40.9c-.3-7.2-2.1-12.7-5.5-16.5s-8-5.8-14-5.8C330.8,65.1,325.9,67,322.2,70.9Z" transform="translate(-0.02 -0.18)"/><path class="cls-1" d="M449.5,55.8a7.52,7.52,0,0,1,2.1,5.7V126a7,7,0,0,1-2.2,5.4,8,8,0,0,1-5.9,2.1,7.71,7.71,0,0,1-5.4-2,7,7,0,0,1-2.1-5.3v-6a24.57,24.57,0,0,1-10.1,10.1,29.67,29.67,0,0,1-14.3,3.5c-18.8,0-28.2-10.3-28.2-31V61.4a7.52,7.52,0,0,1,2.1-5.7,8,8,0,0,1,5.9-2.1,7.89,7.89,0,0,1,5.8,2.1,7.52,7.52,0,0,1,2.1,5.7v41c0,6.2,1.3,10.8,3.8,13.8s6.4,4.4,11.7,4.4q9.3,0,15-6c3.8-4,5.6-9.3,5.6-16V61.4a7.38,7.38,0,0,1,2.2-5.6,8,8,0,0,1,5.9-2.1A8.35,8.35,0,0,1,449.5,55.8Z" transform="translate(-0.02 -0.18)"/><path class="cls-1" d="M518.1,60.2a7.43,7.43,0,0,1-1.7,5.2c-1.1,1.1-3.2,1.8-6,2.1l-4.8.5c-6.6.6-11.6,3-14.8,7A23.29,23.29,0,0,0,486,89.6v36.3a6.92,6.92,0,0,1-2.2,5.7,8.37,8.37,0,0,1-5.7,1.9,8.63,8.63,0,0,1-5.8-1.9,7.33,7.33,0,0,1-2.3-5.7V61.3a7,7,0,0,1,2.3-5.6,8.72,8.72,0,0,1,5.8-2,7.76,7.76,0,0,1,5.3,2,7,7,0,0,1,2.1,5.5v7.6a23.14,23.14,0,0,1,9.2-10.6,32.87,32.87,0,0,1,13.6-4.3l2.2-.2C515.6,53.4,518.1,55.5,518.1,60.2Z" transform="translate(-0.02 -0.18)"/><path class="cls-1" d="M535.9,128.8a32.69,32.69,0,0,1-13.3-14,46.81,46.81,0,0,1-4.7-21.1,47.35,47.35,0,0,1,4.7-21.3,32.69,32.69,0,0,1,13.3-14,38.78,38.78,0,0,1,20-4.9c7.6,0,14.3,1.6,20,4.9a33.86,33.86,0,0,1,13.3,14,46.06,46.06,0,0,1,4.7,21.3,46.81,46.81,0,0,1-4.7,21.1,32.11,32.11,0,0,1-13.3,14,38.78,38.78,0,0,1-20,4.9A40.85,40.85,0,0,1,535.9,128.8ZM572.2,114c3.8-4.6,5.6-11.5,5.6-20.4s-1.9-15.7-5.7-20.3-9.2-7.1-16.2-7.1-12.3,2.3-16.2,7.1S534,84.8,534,93.6c0,9,1.9,15.8,5.6,20.4s9.2,7,16.2,7c7.2,0,12.7-2.3,16.4-7Z" transform="translate(-0.02 -0.18)"/><path class="cls-1" d="M722.4,84.6v41.2a7.24,7.24,0,0,1-2.2,5.6,9.41,9.41,0,0,1-11.6,0,7.24,7.24,0,0,1-2.2-5.6v-41c0-6.4-1.2-11.1-3.5-14s-6-4.3-10.9-4.3c-5.8,0-10.4,2-13.8,5.9s-5.1,9.4-5.1,16.2v37.2a7.24,7.24,0,0,1-2.2,5.6,9.41,9.41,0,0,1-11.6,0,7.24,7.24,0,0,1-2.2-5.6v-41c0-6.4-1.2-11.1-3.5-14s-6-4.3-10.9-4.3a17.82,17.82,0,0,0-13.9,5.9c-3.5,3.9-5.2,9.4-5.2,16.2v37.2a7.24,7.24,0,0,1-2.2,5.6,8.46,8.46,0,0,1-5.7,2,9.27,9.27,0,0,1-5.8-2,7,7,0,0,1-2.3-5.6V61.3a6.87,6.87,0,0,1,2.4-5.5,8.55,8.55,0,0,1,5.7-2.1,8.46,8.46,0,0,1,5.5,2,7,7,0,0,1,2.1,5.5v5.9A23.08,23.08,0,0,1,633,57a28.21,28.21,0,0,1,14.2-3.5q8.85,0,14.7,3.6a22.29,22.29,0,0,1,8.6,11.2,26.14,26.14,0,0,1,10.3-10.8,30.14,30.14,0,0,1,15.5-4C713.8,53.4,722.4,63.8,722.4,84.6Z" transform="translate(-0.02 -0.18)"/><path class="cls-1" d="M809.5,55.8a7.68,7.68,0,0,1,2.1,5.6v64.1a7.52,7.52,0,0,1-2.1,5.7,9.06,9.06,0,0,1-11.6,0,7.52,7.52,0,0,1-2.1-5.7v-6.3a24.3,24.3,0,0,1-10.1,10.7,30.51,30.51,0,0,1-15.4,3.7,32.54,32.54,0,0,1-17.9-5,33.26,33.26,0,0,1-12.1-13.9,48,48,0,0,1-4.4-20.8,50.67,50.67,0,0,1,4.4-21.4,33.37,33.37,0,0,1,12.1-14.2,32.54,32.54,0,0,1,17.9-5,30.59,30.59,0,0,1,15.4,3.8,23.5,23.5,0,0,1,10.1,10.8V61.2a7.61,7.61,0,0,1,2.1-5.5,7.89,7.89,0,0,1,5.8-2.1A8.91,8.91,0,0,1,809.5,55.8Zm-19.4,58.1c3.8-4.8,5.6-11.5,5.6-20.3s-1.9-15.5-5.6-20.3S781,66.2,774,66.2s-12.4,2.4-16.2,7.2S752,85,752,93.9c0,8.6,1.9,15.2,5.8,20s9.3,7.1,16.2,7.1S786.4,118.6,790.1,113.9Z" transform="translate(-0.02 -0.18)"/><path class="cls-1" d="M872.8,123a6.17,6.17,0,0,1-1,9c-1.6,1.1-4,1.6-7.2,1.4l-4.3-.3q-12.75-.9-19.2-7.8c-4.3-4.6-6.3-11.4-6.3-20.3V67.6h-9.5c-4.7,0-7-2.1-7-6.2a5.88,5.88,0,0,1,1.8-4.5,7.59,7.59,0,0,1,5.2-1.7h9.5V39a7.52,7.52,0,0,1,2.1-5.7,7.89,7.89,0,0,1,5.8-2.1,8.4,8.4,0,0,1,5.9,2.1,7.6,7.6,0,0,1,2.2,5.7V55.3h15.7a7.43,7.43,0,0,1,5.2,1.7,5.88,5.88,0,0,1,1.8,4.5,6.1,6.1,0,0,1-1.8,4.6,7.51,7.51,0,0,1-5.2,1.6H850.8V106c0,5,1,8.6,3.1,10.9s5.2,3.6,9.4,4l4.4.3Q871.3,121.5,872.8,123Z" transform="translate(-0.02 -0.18)"/><path class="cls-1" d="M895.3,128.8a33.15,33.15,0,0,1-13.1-13.9A46,46,0,0,1,877.5,94a44.54,44.54,0,0,1,4.8-21.2,34.21,34.21,0,0,1,13.5-14.2,40,40,0,0,1,20-5.1,44.76,44.76,0,0,1,12.1,1.7A41.9,41.9,0,0,1,938.7,60q5.1,3.45,5.1,8.1a7.29,7.29,0,0,1-1.4,4.5,4.7,4.7,0,0,1-3.6,1.8,5.55,5.55,0,0,1-2.8-.7,33.54,33.54,0,0,1-3.6-2.1,40.17,40.17,0,0,0-7.4-3.9,22.74,22.74,0,0,0-8.2-1.3c-7.2,0-12.8,2.4-16.7,7.3s-5.9,11.6-5.9,20.3,2,15.3,5.9,20,9.5,7.1,16.6,7.1a23.91,23.91,0,0,0,8.4-1.4,39.75,39.75,0,0,0,7.4-3.8A39,39,0,0,1,936,114a8.87,8.87,0,0,1,3.2-.8,4.28,4.28,0,0,1,3.6,1.8,6.71,6.71,0,0,1,1.4,4.5,7.21,7.21,0,0,1-1.2,4,14.14,14.14,0,0,1-4,3.7,38,38,0,0,1-11.1,4.9,46.43,46.43,0,0,1-12.8,1.7A40.19,40.19,0,0,1,895.3,128.8Z" transform="translate(-0.02 -0.18)"/><path class="cls-1" d="M1023.8,84.6v41.2a7,7,0,0,1-2.2,5.5,8.4,8.4,0,0,1-5.9,2.1,7.89,7.89,0,0,1-5.8-2.1,7.61,7.61,0,0,1-2.1-5.5v-41c0-6.3-1.3-11-3.9-13.9s-6.6-4.4-12.1-4.4c-6.4,0-11.6,2-15.5,6s-5.9,9.4-5.9,16.2v37.2a7.61,7.61,0,0,1-2.1,5.5,7.89,7.89,0,0,1-5.8,2.1,8.4,8.4,0,0,1-5.9-2.1,7,7,0,0,1-2.2-5.5v-98a7.11,7.11,0,0,1,2.3-5.5,8.4,8.4,0,0,1,5.9-2.1,7.6,7.6,0,0,1,5.6,2,7,7,0,0,1,2.1,5.3V67.2a26.42,26.42,0,0,1,10.6-10.1,32,32,0,0,1,15.2-3.5C1014.6,53.4,1023.8,63.8,1023.8,84.6Z" transform="translate(-0.02 -0.18)"/><path class="cls-1" d="M589.61,218.69Q584,212.26,584,202.46A24.71,24.71,0,0,1,586.62,191a20.23,20.23,0,0,1,7.6-8.18,21.5,21.5,0,0,1,11.43-3,22.26,22.26,0,0,1,7,1.05,15.59,15.59,0,0,1,5.1,2.64,3.31,3.31,0,0,1,1.5,2.55,2.13,2.13,0,0,1-.73,1.63,2.55,2.55,0,0,1-1.78.66,3.25,3.25,0,0,1-1.84-.58,16,16,0,0,0-8.84-2.59,12.6,12.6,0,0,0-10.19,4.73q-3.92,4.73-3.91,12.72a24.62,24.62,0,0,0,.79,6.33,18.26,18.26,0,0,0,2.37,5.42,11.32,11.32,0,0,0,4.22,3.87,12.56,12.56,0,0,0,6.06,1.43,17.25,17.25,0,0,0,10.07-2.81,3.06,3.06,0,0,1,1.76-.58,2.35,2.35,0,0,1,1.71.69,2.23,2.23,0,0,1,.7,1.69,3.51,3.51,0,0,1-1.49,2.68q-4.75,3.83-13.36,3.82Q595.23,225.13,589.61,218.69Z" transform="translate(-0.02 -0.18)"/><path class="cls-1" d="M632.08,218.72q-6-6.37-6-16.26t6-16.31q6-6.37,16.06-6.37t16.06,6.35q6,6.35,6,16.33t-5.93,16.26q-5.94,6.36-16.09,6.37T632.08,218.72Zm26.46-3.67q3.71-4.59,3.71-12.59t-3.76-12.62a12.57,12.57,0,0,0-10.35-4.65q-6.63,0-10.37,4.63T634,202.46q0,7.9,3.71,12.54a12.46,12.46,0,0,0,10.3,4.64Q654.83,219.64,658.54,215.05Z" transform="translate(-0.02 -0.18)"/><path class="cls-1" d="M681.14,223.31a3.5,3.5,0,0,1-1.14-2.79V184.39a3.38,3.38,0,0,1,1.19-2.74,4.55,4.55,0,0,1,5.6-.05,3.23,3.23,0,0,1,1.17,2.66v3.83a12.35,12.35,0,0,1,5.47-6.16,17.68,17.68,0,0,1,8.85-2.15q7.26,0,11.56,4.22t4.31,12.79v23.73a3.45,3.45,0,0,1-1.17,2.79,4.43,4.43,0,0,1-5.58,0,3.45,3.45,0,0,1-1.16-2.79V196.7q0-5.62-2.62-8.57a9.32,9.32,0,0,0-7.36-2.94,11.36,11.36,0,0,0-8.52,3.6q-3.48,3.6-3.78,9.8v21.93a3.45,3.45,0,0,1-1.21,2.77,4.31,4.31,0,0,1-2.84,1A4.11,4.11,0,0,1,681.14,223.31Z" transform="translate(-0.02 -0.18)"/><path class="cls-1" d="M735.88,223.26a3.61,3.61,0,0,1-1.17-2.87V186.24H729a2.9,2.9,0,0,1-2.16-.72,2.58,2.58,0,0,1-.7-1.83,2.69,2.69,0,0,1,.7-1.89,2.83,2.83,0,0,1,2.16-.75h5.75v-5.58q0-7.86,3.34-11.18t9.23-3.32h5.36a2.42,2.42,0,0,1,2,.9,3.26,3.26,0,0,1,.73,2.13,3.17,3.17,0,0,1-.73,2.11,2.48,2.48,0,0,1-2,.88h-3.73a10.32,10.32,0,0,0-3,.33,3.75,3.75,0,0,0-1.87,1.45A7.15,7.15,0,0,0,743,172a44,44,0,0,0-.28,5.65v3.42h7.43a2.76,2.76,0,0,1,2.13.75,2.72,2.72,0,0,1,.68,1.89c0,1.7-.94,2.55-2.81,2.55h-7.43v34.15a3.59,3.59,0,0,1-1.19,2.87,4.14,4.14,0,0,1-2.81,1A4.06,4.06,0,0,1,735.88,223.26Z" transform="translate(-0.02 -0.18)"/><path class="cls-1" d="M769.87,222.36a19.47,19.47,0,0,1-7.76-7.89,24.8,24.8,0,0,1-2.87-12.15,25.55,25.55,0,0,1,2.41-11.16,19.91,19.91,0,0,1,7.3-8.22,20.42,20.42,0,0,1,11.38-3.16,22.11,22.11,0,0,1,9,1.71,15.35,15.35,0,0,1,6.15,4.73,21.58,21.58,0,0,1,3.43,6.72,30.51,30.51,0,0,1,1.27,8.15,3.14,3.14,0,0,1-.7,2.11,2.59,2.59,0,0,1-2.11.84H767.23q.09,7.56,4,11.45a14.17,14.17,0,0,0,10.15,4,17,17,0,0,0,7-1.4,32.47,32.47,0,0,0,6.28-3.83,2.69,2.69,0,0,1,1.67-.61,2.28,2.28,0,0,1,1.78.81,2.75,2.75,0,0,1,.73,1.91,3.29,3.29,0,0,1-1.23,2.51,24.25,24.25,0,0,1-16.79,6.24A22.84,22.84,0,0,1,769.87,222.36Zm23.38-23.2a17.66,17.66,0,0,0-3.47-10.06q-3.07-3.91-9-3.91a12.88,12.88,0,0,0-5.58,1.18,11.5,11.5,0,0,0-4.11,3.19,16.56,16.56,0,0,0-2.55,4.44,18,18,0,0,0-1.16,5.16Z" transform="translate(-0.02 -0.18)"/><path class="cls-1" d="M812.37,223.33a3.34,3.34,0,0,1-1.15-2.72V184.35a3.26,3.26,0,0,1,1.19-2.7,4.38,4.38,0,0,1,2.81-1,4.27,4.27,0,0,1,2.79,1,3.17,3.17,0,0,1,1.17,2.61l0,5.28a13.15,13.15,0,0,1,4.42-6.84,12.1,12.1,0,0,1,8-2.74,2.68,2.68,0,0,1,2.22,1,3.91,3.91,0,0,1,.81,2.46,3.5,3.5,0,0,1-.75,2.26,2.55,2.55,0,0,1-2.15,1q-5.94,0-9.21,3.08a10.74,10.74,0,0,0-3.27,8.21v22.64a3.29,3.29,0,0,1-1.21,2.72,4.44,4.44,0,0,1-2.84,1A4.15,4.15,0,0,1,812.37,223.33Z" transform="translate(-0.02 -0.18)"/><path class="cls-1" d="M851,222.36a19.47,19.47,0,0,1-7.76-7.89,24.69,24.69,0,0,1-2.88-12.15,25.56,25.56,0,0,1,2.42-11.16,19.84,19.84,0,0,1,7.3-8.22,20.42,20.42,0,0,1,11.38-3.16,22.15,22.15,0,0,1,9,1.71,15.48,15.48,0,0,1,6.15,4.73,21.8,21.8,0,0,1,3.43,6.72,30.92,30.92,0,0,1,1.27,8.15,3.2,3.2,0,0,1-.7,2.11,2.61,2.61,0,0,1-2.11.84H848.4q.09,7.56,4,11.45a14.2,14.2,0,0,0,10.16,4,17.07,17.07,0,0,0,7-1.4,32.47,32.47,0,0,0,6.28-3.83,2.67,2.67,0,0,1,1.67-.61,2.3,2.3,0,0,1,1.78.81,2.8,2.8,0,0,1,.73,1.91,3.32,3.32,0,0,1-1.23,2.51,24.25,24.25,0,0,1-16.79,6.24A22.84,22.84,0,0,1,851,222.36Zm23.38-23.2A17.73,17.73,0,0,0,871,189.1q-3.09-3.91-9-3.91a12.85,12.85,0,0,0-5.58,1.18,11.5,11.5,0,0,0-4.11,3.19A16.56,16.56,0,0,0,849.7,194a18.31,18.31,0,0,0-1.17,5.16Z" transform="translate(-0.02 -0.18)"/><path class="cls-1" d="M893.45,223.31a3.47,3.47,0,0,1-1.15-2.79V184.39a3.38,3.38,0,0,1,1.19-2.74,4.55,4.55,0,0,1,5.6-.05,3.23,3.23,0,0,1,1.17,2.66v3.83a12.35,12.35,0,0,1,5.47-6.16,17.68,17.68,0,0,1,8.85-2.15q7.26,0,11.56,4.22t4.31,12.79v23.73a3.45,3.45,0,0,1-1.17,2.79,4.43,4.43,0,0,1-5.58,0,3.45,3.45,0,0,1-1.16-2.79V196.7c0-3.75-.88-6.61-2.62-8.57a9.34,9.34,0,0,0-7.36-2.94,11.36,11.36,0,0,0-8.52,3.6q-3.48,3.6-3.78,9.8v21.93a3.45,3.45,0,0,1-1.21,2.77,4.31,4.31,0,0,1-2.84,1A4.07,4.07,0,0,1,893.45,223.31Z" transform="translate(-0.02 -0.18)"/><path class="cls-1" d="M946,218.69q-5.62-6.44-5.63-16.23A24.71,24.71,0,0,1,943,191a20.23,20.23,0,0,1,7.6-8.18,21.5,21.5,0,0,1,11.43-3,22.37,22.37,0,0,1,7,1.05,15.64,15.64,0,0,1,5.09,2.64,3.31,3.31,0,0,1,1.5,2.55,2.09,2.09,0,0,1-.73,1.63,2.53,2.53,0,0,1-1.78.66,3.25,3.25,0,0,1-1.84-.58,16,16,0,0,0-8.84-2.59,12.62,12.62,0,0,0-10.19,4.73q-3.91,4.73-3.91,12.72a24.62,24.62,0,0,0,.79,6.33,18.78,18.78,0,0,0,2.37,5.42,11.4,11.4,0,0,0,4.22,3.87,12.57,12.57,0,0,0,6.07,1.43,17.24,17.24,0,0,0,10.06-2.81,3.08,3.08,0,0,1,1.76-.58,2.35,2.35,0,0,1,1.71.69,2.23,2.23,0,0,1,.7,1.69,3.48,3.48,0,0,1-1.49,2.68q-4.74,3.83-13.36,3.82Q951.58,225.13,946,218.69Z" transform="translate(-0.02 -0.18)"/><path class="cls-1" d="M993.38,222.36a19.41,19.41,0,0,1-7.76-7.89,24.69,24.69,0,0,1-2.88-12.15,25.56,25.56,0,0,1,2.42-11.16,19.89,19.89,0,0,1,7.29-8.22,20.48,20.48,0,0,1,11.39-3.16,22.06,22.06,0,0,1,9,1.71,15.45,15.45,0,0,1,6.16,4.73,21.56,21.56,0,0,1,3.42,6.72,30.51,30.51,0,0,1,1.28,8.15,3.2,3.2,0,0,1-.7,2.11,2.61,2.61,0,0,1-2.11.84H990.74q.09,7.56,4,11.45a14.19,14.19,0,0,0,10.15,4,17,17,0,0,0,7-1.4,32.53,32.53,0,0,0,6.29-3.83,2.67,2.67,0,0,1,1.67-.61,2.3,2.3,0,0,1,1.78.81,2.79,2.79,0,0,1,.72,1.91,3.29,3.29,0,0,1-1.23,2.51,24.22,24.22,0,0,1-16.78,6.24A22.82,22.82,0,0,1,993.38,222.36Zm23.38-23.2a17.74,17.74,0,0,0-3.48-10.06q-3.07-3.91-9-3.91a12.9,12.9,0,0,0-5.59,1.18,11.5,11.5,0,0,0-4.11,3.19A16.8,16.8,0,0,0,992,194a18.31,18.31,0,0,0-1.17,5.16Z" transform="translate(-0.02 -0.18)"/></svg>