<?xml version="1.0" encoding="utf-8"?>
<!-- Generator: Adobe Illustrator 19.2.1, SVG Export Plug-In . SVG Version: 6.00 Build 0)  -->
<svg version="1.1" id="Layer_1" xmlns="http://www.w3.org/2000/svg" xmlns:xlink="http://www.w3.org/1999/xlink" x="0px" y="0px"
	 viewBox="0 0 720 720" style="enable-background:new 0 0 720 720;" xml:space="preserve">
<g>
	<g>
		<path d="M194.4,209.8c-23.1,0-41.8-18.8-41.8-41.8s18.8-41.8,41.8-41.8c23.1,0,41.8,18.8,41.8,41.8S217.4,209.8,194.4,209.8z
			 M194.4,149.1c-10.4,0-18.8,8.5-18.8,18.8c0,10.4,8.5,18.8,18.8,18.8c10.4,0,18.8-8.5,18.8-18.8
			C213.2,157.6,204.7,149.1,194.4,149.1z"/>
	</g>
	<g>
		<path d="M193.7,296.3c-59.6,0-108.1-48.5-108.1-108.1c0-59.6,48.5-108.1,108.1-108.1s108.1,48.5,108.1,108.1
			C301.8,247.8,253.3,296.3,193.7,296.3z M193.7,103.1c-46.9,0-85.1,38.2-85.1,85.1s38.2,85.1,85.1,85.1c46.9,0,85.1-38.2,85.1-85.1
			S240.6,103.1,193.7,103.1z"/>
	</g>
	<g>
		<path d="M262.7,264.3h-23v-6.8c0-25.7-20.9-46.6-46.6-46.6s-46.6,20.9-46.6,46.6v6.8h-23v-6.8c0-38.4,31.2-69.6,69.6-69.6
			s69.6,31.2,69.6,69.6V264.3z"/>
	</g>
</g>
<g>
	<g>
		<path d="M528.7,336.2c-23.1,0-41.8-18.8-41.8-41.8s18.8-41.8,41.8-41.8c23.1,0,41.8,18.8,41.8,41.8S551.8,336.2,528.7,336.2z
			 M528.7,275.5c-10.4,0-18.8,8.5-18.8,18.8s8.5,18.8,18.8,18.8c10.4,0,18.8-8.5,18.8-18.8S539.1,275.5,528.7,275.5z"/>
	</g>
	<g>
		<path d="M528,422.7c-59.6,0-108.1-48.5-108.1-108.1c0-59.6,48.5-108.1,108.1-108.1S636.1,255,636.1,314.6
			C636.1,374.2,587.6,422.7,528,422.7z M528,229.5c-46.9,0-85.1,38.2-85.1,85.1s38.2,85.1,85.1,85.1s85.1-38.2,85.1-85.1
			S575,229.5,528,229.5z"/>
	</g>
	<g>
		<path d="M597.1,390.7h-23v-6.8c0-25.7-20.9-46.6-46.6-46.6s-46.6,20.9-46.6,46.6v6.8h-23v-6.8c0-38.4,31.2-69.6,69.6-69.6
			c38.4,0,69.6,31.2,69.6,69.6V390.7z"/>
	</g>
</g>
<g>
	<g>
		<path d="M528.7,598.8c-23.1,0-41.8-18.8-41.8-41.8s18.8-41.8,41.8-41.8c23.1,0,41.8,18.8,41.8,41.8S551.8,598.8,528.7,598.8z
			 M528.7,538.1c-10.4,0-18.8,8.5-18.8,18.8s8.5,18.8,18.8,18.8c10.4,0,18.8-8.5,18.8-18.8S539.1,538.1,528.7,538.1z"/>
	</g>
	<g>
		<path d="M528,685.2c-59.6,0-108.1-48.5-108.1-108.1S468.4,469.1,528,469.1s108.1,48.5,108.1,108.1S587.6,685.2,528,685.2z
			 M528,492.1c-46.9,0-85.1,38.2-85.1,85.1c0,46.9,38.2,85.1,85.1,85.1s85.1-38.2,85.1-85.1C613.1,530.2,575,492.1,528,492.1z"/>
	</g>
	<g>
		<path d="M597.1,653.2h-23v-6.8c0-25.7-20.9-46.6-46.6-46.6s-46.6,20.9-46.6,46.6v6.8h-23v-6.8c0-38.4,31.2-69.6,69.6-69.6
			c38.4,0,69.6,31.2,69.6,69.6V653.2z"/>
	</g>
</g>
<g>
	<g>
		<path d="M194.4,466.6c-23.1,0-41.8-18.8-41.8-41.8c0-23.1,18.8-41.8,41.8-41.8c23.1,0,41.8,18.8,41.8,41.8
			C236.2,447.9,217.4,466.6,194.4,466.6z M194.4,405.9c-10.4,0-18.8,8.5-18.8,18.8c0,10.4,8.5,18.8,18.8,18.8
			c10.4,0,18.8-8.5,18.8-18.8C213.2,414.4,204.7,405.9,194.4,405.9z"/>
	</g>
	<g>
		<path d="M193.7,553.1c-59.6,0-108.1-48.5-108.1-108.1s48.5-108.1,108.1-108.1S301.8,385.4,301.8,445S253.3,553.1,193.7,553.1z
			 M193.7,359.9c-46.9,0-85.1,38.2-85.1,85.1c0,46.9,38.2,85.1,85.1,85.1c46.9,0,85.1-38.2,85.1-85.1
			C278.8,398.1,240.6,359.9,193.7,359.9z"/>
	</g>
	<g>
		<path d="M262.7,521.1h-23v-6.8c0-25.7-20.9-46.6-46.6-46.6s-46.6,20.9-46.6,46.6v6.8h-23v-6.8c0-38.4,31.2-69.6,69.6-69.6
			s69.6,31.2,69.6,69.6V521.1z"/>
	</g>
</g>
<g>
	<rect x="347.6" y="164.2" transform="matrix(0.4166 -0.9091 0.9091 0.4166 -12.2336 468.7034)" width="23" height="159.3"/>
</g>
<g>
	<rect x="347.6" y="427.5" transform="matrix(0.477 -0.8789 0.8789 0.477 -260.3153 582.2454)" width="23" height="164.7"/>
</g>
<g>
	<rect x="279.4" y="365.3" transform="matrix(0.9091 -0.4166 0.4166 0.9091 -124.3278 183.8328)" width="159.3" height="23"/>
</g>
</svg>
