<?xml version="1.0" encoding="utf-8"?>
<!-- Generator: Adobe Illustrator 19.2.1, SVG Export Plug-In . SVG Version: 6.00 Build 0)  -->
<svg version="1.1" id="Layer_1" xmlns="http://www.w3.org/2000/svg" xmlns:xlink="http://www.w3.org/1999/xlink" x="0px" y="0px"
	 viewBox="0 0 720 720" style="enable-background:new 0 0 720 720;" xml:space="preserve">
<g>
	<path d="M66.4,637.2H55.2c-24.8,0-45-20.2-45-45v-40.8c0-6.4,5.1-11.5,11.5-11.5h63.5c6.4,0,11.5,5.1,11.5,11.5
		s-5.1,11.5-11.5,11.5h-52v29.3c0,12.2,9.9,22,22,22h11.1c6.4,0,11.5,5.1,11.5,11.5S72.7,637.2,66.4,637.2z"/>
</g>
<g>
	<path d="M665.5,637.2H469.3c-6.4,0-11.5-5.1-11.5-11.5s5.1-11.5,11.5-11.5h196.2c12.2,0,22-9.9,22-22v-29.3H466.2
		c-6.4,0-11.5-5.1-11.5-11.5s5.1-11.5,11.5-11.5h232.9c6.4,0,11.5,5.1,11.5,11.5v40.8C710.6,617,690.4,637.2,665.5,637.2z"/>
</g>
<g>
	<path d="M86.5,561.9c-6.4,0-11.5-5.1-11.5-11.5V175.9c0-23,18.7-41.7,41.7-41.7h487.4c23,0,41.7,18.7,41.7,41.7v374.2
		c0,6.4-5.1,11.5-11.5,11.5H459.9c-6.4,0-11.5-5.1-11.5-11.5s5.1-11.5,11.5-11.5h162.9V175.9c0-10.3-8.4-18.7-18.7-18.7H116.7
		c-10.3,0-18.7,8.4-18.7,18.7v374.6C98,556.8,92.9,561.9,86.5,561.9z"/>
</g>
<g>
	<g>
		<path d="M274.7,477c-51.7,0-93.7-42-93.7-93.7s42-93.7,93.7-93.7s93.7,42,93.7,93.7S326.4,477,274.7,477z M274.7,312.7
			c-39,0-70.7,31.7-70.7,70.7c0,39,31.7,70.7,70.7,70.7c39,0,70.7-31.7,70.7-70.7C345.4,344.4,313.7,312.7,274.7,312.7z"/>
	</g>
	<g>
		<path d="M428.8,637.2c-6.4,0-11.5-5.1-11.5-11.5c0-80.4-65.4-145.8-145.8-145.8c-80.4,0-145.8,65.4-145.8,145.8
			c0,6.4-5.1,11.5-11.5,11.5s-11.5-5.1-11.5-11.5c0-93.1,75.7-168.8,168.8-168.8s168.8,75.7,168.8,168.8
			C440.3,632.1,435.1,637.2,428.8,637.2z"/>
	</g>
</g>
<g>
	<g>
		<path d="M523.4,367.8c-18.1,0-32.7-14.7-32.7-32.7c0-18.1,14.7-32.7,32.7-32.7s32.7,14.7,32.7,32.7
			C556.1,353.2,541.4,367.8,523.4,367.8z M523.4,325.4c-5.4,0-9.7,4.4-9.7,9.7s4.4,9.7,9.7,9.7s9.7-4.4,9.7-9.7
			S528.8,325.4,523.4,325.4z"/>
	</g>
	<g>
		<path d="M563.2,409.2c-6.4,0-11.5-5.1-11.5-11.5c0-16.1-13.1-29.2-29.2-29.2s-29.2,13.1-29.2,29.2c0,6.4-5.1,11.5-11.5,11.5
			s-11.5-5.1-11.5-11.5c0-28.8,23.4-52.2,52.2-52.2c28.8,0,52.2,23.4,52.2,52.2C574.7,404.1,569.6,409.2,563.2,409.2z"/>
	</g>
</g>
<g>
	<path d="M592,460.4H431.7c-6.4,0-11.5-5.1-11.5-11.5v-153c0-6.4,5.1-11.5,11.5-11.5s11.5,5.1,11.5,11.5v141.5H592
		c6.4,0,11.5,5.1,11.5,11.5S598.4,460.4,592,460.4z"/>
</g>
<g>
	<path d="M362.2,219.6c-14.4,0-26.2-11.7-26.2-26.2s11.7-26.2,26.2-26.2s26.2,11.7,26.2,26.2S376.7,219.6,362.2,219.6z M362.2,190.2
		c-1.8,0-3.2,1.4-3.2,3.2s1.4,3.2,3.2,3.2c1.8,0,3.2-1.4,3.2-3.2S364,190.2,362.2,190.2z"/>
</g>
<g>
	<path d="M624.5,251.5H88.3c-6.4,0-11.5-5.1-11.5-11.5s5.1-11.5,11.5-11.5h536.2c6.4,0,11.5,5.1,11.5,11.5S630.9,251.5,624.5,251.5z
		"/>
</g>
</svg>
