<?xml version="1.0" encoding="utf-8"?>
<!-- Generator: Adobe Illustrator 19.2.1, SVG Export Plug-In . SVG Version: 6.00 Build 0)  -->
<svg version="1.1" id="Layer_1" xmlns="http://www.w3.org/2000/svg" xmlns:xlink="http://www.w3.org/1999/xlink" x="0px" y="0px"
	 viewBox="0 0 720 720" style="enable-background:new 0 0 720 720;" xml:space="preserve">
<g>
	<path d="M610.1,343.9c-3,0-6.1-0.2-9.2-0.5h-63.3c-6.4,0-11.5-5.1-11.5-11.5s5.1-11.5,11.5-11.5h63.9c0.4,0,0.8,0,1.2,0.1
		c2.5,0.3,5,0.4,7.4,0.4c38.7,0,70.2-31.5,70.2-70.2s-31.5-70.2-70.2-70.2c-1.8,0-3.8,0.1-6,0.3c-5.8,0.5-11-3.4-12.2-9
		c-5.8-26.2-20.5-50-41.4-67.1c-21.2-17.3-48-26.8-75.5-26.8c-66,0-119.7,53.7-119.7,119.7c0,4.9,0.3,9.9,1,15.2
		c0.4,3.4-0.7,6.8-3,9.3c-2.3,2.5-5.6,3.8-9,3.7c-0.8,0-1.6-0.1-2.4-0.1c-22,0-40.9,14.9-46.1,36.3c-1.5,6.2-7.7,10-13.9,8.5
		c-6.2-1.5-10-7.7-8.5-13.9c6.9-28.6,30.4-49.4,58.9-53.2c-0.1-1.9-0.1-3.8-0.1-5.7c0-78.7,64-142.7,142.7-142.7
		c32.7,0,64.7,11.4,90,32c22.4,18.3,38.9,43.1,47,70.7c50.5,1,91.3,42.4,91.3,93.2C703.3,302.1,661.5,343.9,610.1,343.9z"/>
</g>
<g>
	<path d="M413.5,256.4c-7-3.9-12.4-9.4-16.2-16.6c-3.8-7.2-5.7-15.6-5.7-25.3c0-9.6,1.9-18,5.7-25.2c3.8-7.2,9.2-12.7,16.2-16.6
		c7-3.9,15.1-5.8,24.4-5.8c11.2,0,20.9,2.9,29.4,8.8c1.5,1.1,2.6,2.2,3.2,3.4c0.7,1.2,1,2.8,1,4.7c0,2.7-0.8,5-2.3,6.9
		c-1.5,1.9-3.4,2.8-5.6,2.8c-1.3,0-2.5-0.2-3.6-0.6c-1.1-0.4-2.3-1-3.7-1.9c-3.1-1.8-6-3.2-8.7-4c-2.7-0.8-5.5-1.2-8.4-1.2
		c-7.8,0-13.6,2.4-17.5,7c-3.8,4.7-5.7,11.8-5.7,21.4c0,9.7,1.9,16.8,5.7,21.5c3.8,4.7,9.6,7,17.5,7c2.6,0,5.2-0.4,7.6-1.3
		c2.5-0.8,5.6-2.1,9.5-3.9c1.8-1,3.2-1.6,4.1-2c0.9-0.4,1.9-0.5,3.2-0.5c2.2,0,4.1,0.9,5.6,2.8c1.5,1.9,2.3,4.2,2.3,6.9
		c0,1.8-0.3,3.4-1,4.7c-0.7,1.3-1.7,2.4-3.2,3.5c-8.4,5.9-18.2,8.8-29.4,8.8C428.7,262.2,420.5,260.3,413.5,256.4z"/>
	<path d="M498,256.4c-7-3.9-12.4-9.4-16.1-16.6c-3.8-7.2-5.7-15.6-5.7-25.2c0-9.7,1.9-18.1,5.7-25.2c3.8-7.2,9.2-12.7,16.1-16.5
		c7-3.9,15.2-5.8,24.7-5.8s17.7,1.9,24.7,5.8c7,3.9,12.3,9.4,16.1,16.5c3.7,7.2,5.6,15.6,5.6,25.2c0,9.7-1.9,18.1-5.7,25.2
		c-3.8,7.2-9.2,12.7-16.1,16.6c-7,3.9-15.2,5.9-24.6,5.9C513.2,262.2,505,260.3,498,256.4z M539.1,236.2c4-5,5.9-12.2,5.9-21.7
		c0-9.5-2-16.7-6-21.6c-4-4.9-9.5-7.4-16.4-7.4c-7,0-12.5,2.4-16.5,7.3c-4,4.9-5.9,12.1-5.9,21.7c0,9.6,2,16.8,5.9,21.7
		c4,4.9,9.4,7.4,16.5,7.4C529.7,243.6,535.2,241.2,539.1,236.2z"/>
	<path d="M618.9,268.5c1.5,1.2,2.3,3.1,2.3,5.7c0,2.6-0.8,4.6-2.3,5.9c-1.5,1.3-4,2-7.3,2h-27.1c-2.7,0-4.9-0.7-6.5-2.2
		c-1.6-1.5-2.4-3.3-2.4-5.5c0-2.9,1.4-5.8,4.1-8.6l15-15.5c2.5-2.6,3.7-4.8,3.7-6.6c0-2-1.2-3-3.6-3c-1.4,0-2.8,0.3-4.1,0.9
		c-1.4,0.6-2.2,0.9-2.4,1c-1.4,0.7-2.5,1.2-3.2,1.4c-0.7,0.2-1.7,0.3-3,0.3c-1.9,0-3.5-0.8-4.7-2.5c-1.2-1.7-1.8-3.3-1.8-4.9
		c0-1.7,0.2-3,0.7-4c0.4-1,1.4-1.9,2.9-2.8c2.5-1.4,5.2-2.5,8.3-3.2c3.1-0.7,6.1-1.1,9.2-1.1c6.4,0,11.6,1.5,15.7,4.5
		c4,3,6.1,7,6.1,12.1c0,3.1-0.6,5.8-1.8,8.1c-1.2,2.3-3.5,5.1-6.9,8.2l-8.7,7.9h10.8C614.9,266.7,617.4,267.3,618.9,268.5z"/>
</g>
<g>
	<path d="M633.5,504.6c-6.4,0-11.5-5.1-11.5-11.5V336c0-6.4,5.1-11.5,11.5-11.5S645,329.6,645,336v157.1
		C645,499.5,639.9,504.6,633.5,504.6z"/>
</g>
<g>
	<path d="M635,507.1c-3,0-6-1.2-8.1-3.4L564,440.8c-4.5-4.5-4.5-11.8,0-16.3c4.5-4.5,11.8-4.5,16.3,0l54.7,54.7l54.7-54.7
		c4.5-4.5,11.8-4.5,16.3,0c4.5,4.5,4.5,11.8,0,16.3l-62.9,62.9C641,505.9,638,507.1,635,507.1z"/>
</g>
<g>
	<path d="M593.4,637.5H118.3c-6.4,0-11.5-5.1-11.5-11.5s5.1-11.5,11.5-11.5h475.1c12.2,0,19.9-7.9,22.9-15.3
		c3.1-7.4,3.3-18.4-5.4-27.1l-70.2-70.2c-9.2-9.2-21.5-14.3-34.5-14.3H369.6c-6.4,0-11.5-5.1-11.5-11.5s5.1-11.5,11.5-11.5h136.7
		c19.2,0,37.2,7.5,50.8,21l70.2,70.2c13.9,13.9,17.9,33.9,10.4,52.1C630.1,626.1,613.2,637.5,593.4,637.5z"/>
</g>
<g>
	<path d="M364.7,676.4c-17,0-30.8-13.8-30.8-30.8s13.8-30.8,30.8-30.8s30.8,13.8,30.8,30.8S381.6,676.4,364.7,676.4z M364.7,637.8
		c-4.3,0-7.8,3.5-7.8,7.8s3.5,7.8,7.8,7.8s7.8-3.5,7.8-7.8S368.9,637.8,364.7,637.8z"/>
</g>
<g>
	<path d="M206.1,676.4c-17,0-30.8-13.8-30.8-30.8s13.8-30.8,30.8-30.8s30.8,13.8,30.8,30.8S223,676.4,206.1,676.4z M206.1,637.8
		c-4.3,0-7.8,3.5-7.8,7.8s3.5,7.8,7.8,7.8c4.3,0,7.8-3.5,7.8-7.8S210.4,637.8,206.1,637.8z"/>
</g>
<g>
	<path d="M523.2,676.4c-17,0-30.8-13.8-30.8-30.8s13.8-30.8,30.8-30.8s30.8,13.8,30.8,30.8S540.2,676.4,523.2,676.4z M523.2,637.8
		c-4.3,0-7.8,3.5-7.8,7.8s3.5,7.8,7.8,7.8s7.8-3.5,7.8-7.8S527.5,637.8,523.2,637.8z"/>
</g>
<g>
	<g>
		<path d="M490.7,422.7H183.3c-1.3,0-2.6-0.2-3.9-0.7L27.6,367.4c-4.7-1.7-7.7-6.2-7.6-11.1l1.4-57.5c0.2-6.2,5.3-11.2,11.5-11.2
			h393.9c15.3,0,29.7,6,40.5,16.8l51.1,51.1c11.5,11.5,14.7,27.9,8.5,42.9C520.8,413.4,506.9,422.7,490.7,422.7z M185.3,399.7h305.4
			c6.8,0,12.5-3.8,15.1-10.1s1.3-13-3.5-17.8l-51.1-51.1c-6.5-6.5-15.1-10.1-24.3-10.1H44.2l-0.9,38L185.3,399.7z"/>
	</g>
	<g>
		<path d="M127.5,310.9H34c-6.4,0-11.5-5.1-11.5-11.5v-87.7c0-6.4,5.1-11.5,11.5-11.5h37.4c3.9,0,7.6,2,9.7,5.3l56.1,87.7
			c2.3,3.5,2.4,8,0.4,11.7C135.6,308.6,131.7,310.9,127.5,310.9z M45.5,287.9h61l-41.4-64.7H45.5V287.9z"/>
	</g>
	<g>
		<path d="M274.6,570.8h-46c-6.4,0-11.5-5.1-11.5-11.5V414.8c0-6.4,5.1-11.5,11.5-11.5h115c3.9,0,7.6,2,9.7,5.4
			c2.1,3.3,2.4,7.5,0.6,11.1l-69,144.5C283.1,568.3,279,570.8,274.6,570.8z M240.1,547.8h27.3l58-121.5h-85.3V547.8z"/>
	</g>
</g>
<g>
	<path d="M177.8,487.6H62.3c-6.4,0-11.5-5.1-11.5-11.5s5.1-11.5,11.5-11.5h115.5c6.4,0,11.5,5.1,11.5,11.5S184.2,487.6,177.8,487.6z
		"/>
</g>
<g>
	<path d="M599.7,557.5H344.3c-6.4,0-11.5-5.1-11.5-11.5s5.1-11.5,11.5-11.5h255.3c6.4,0,11.5,5.1,11.5,11.5S606,557.5,599.7,557.5z"
		/>
</g>
<g>
	<path d="M177.8,557.5H96.1c-6.4,0-11.5-5.1-11.5-11.5s5.1-11.5,11.5-11.5h81.7c6.4,0,11.5,5.1,11.5,11.5S184.2,557.5,177.8,557.5z"
		/>
</g>
</svg>
